<?xml version="1.0" encoding="UTF-8"?>
<!DOCTYPE svg PUBLIC "-//W3C//DTD SVG 1.1//EN" "http://www.w3.org/Graphics/SVG/1.1/DTD/svg11.dtd">
<svg version="1.1" id="Layer_1" xmlns="http://www.w3.org/2000/svg" xmlns:xlink="http://www.w3.org/1999/xlink" x="0px" y="0px" viewBox="-152.725 -113.013 1691.724 1969.873" enable-background="new -152.725 -113.013 1691.724 1969.873" xml:space="preserve">
<g>
	<path fill="#60261A" stroke="#60261A" stroke-width="0.5" d="M751.48,10.67c16.5-20.42,41.64-33.99,68-35.17   c14.62-0.73,29.23,3.68,41.39,11.72c14.73,9.34,25.29,23.46,37.21,35.86c-0.58,1.15-1.15,2.3-1.71,3.45   c-2.64-1.96-5.06-4.17-7.43-6.43C876.48,8.2,863.49-4.19,846.88-9.95c-13.49-4.92-28.67-4.01-41.95,1.16   c7.53,0.4,15.11,0.9,22.41,2.9c20.16,5.11,37.97,17.62,50.94,33.71c14.76,18.27,23.56,41.29,24.65,64.76   c0.37,3.23,0.14,6.8,1.75,9.72c6.06,6.93,13.64,13.31,22.92,15.14c4.18,0.86,9.76,0.73,12.24-3.37c3.6-6.17,3.17-13.63,3.83-20.5   c0.8-8.72,0.99-18.33,6.68-25.53c0.88,0.87,1.77,1.74,2.67,2.61c-4.22,8.76-2.21,18.73-1.79,28.04c0.58,8.62,0.89,18.57-5.35,25.39   c-5.19,5.88-13.5,6.65-20.83,6.99c7.33,3.35,15.38,5.22,23.47,4.8c13.14-0.47,25.72-5.45,38.92-5.28   c10.04,0.38,19.92-2.02,29.96-1.96c23.42-0.73,48.24,3.29,67.36,17.72c13.48,10.54,25.04,24.52,29.78,41.22   c5.01,16.24,4.47,34.07,12.39,49.4c4.68,9.44,15.08,14.44,25.1,15.87c9.96,1.39,21.03-0.16,29-6.73   c7.65-6.18,9.26-17.73,5.47-26.46c-3.32-7.3-12.84-9.73-19.91-6.84c-4.05,1.32-6.89,4.65-9.36,7.94c0.33-2.91,2.18-5.26,4.37-7.07   c7.91-6.83,21.83-6.04,27.65,3.12c6.12,10.18,5.12,24.65-3.35,33.26c-6.11,6.37-14.73,9.74-23.34,10.99   c-12.51,1.71-25.96-0.66-36.26-8.22c-8.21-6.07-12.85-15.65-16.1-25.07c-5.41-15.11-6.4-31.95-15.27-45.69   c-9.32-13.64-23.32-24.55-39.57-28.37c6.06,5.23,12,10.65,16.97,16.97c13.79,16.89,22.26,38.1,23.77,59.87   c0.43,7.15,2.42,14.22,5.97,20.45c7.12,12.61,19.79,21.52,33.59,25.47c11.51,3.18,23.29,5.27,34.76,8.62   c15.54,4.69,30.72,11.14,44.01,20.55c10.5,7.35,19.71,16.74,25.96,27.98c10.98,18.97,16.37,40.53,19.94,61.99   c3.17,17.65,2.99,36.02,9.2,53.04c2.01,5.39,4.85,10.94,9.94,13.99c4.43,2.63,10.48,1.7,13.98-2.06   c5.51-5.2,6.97-12.92,10.19-19.48c-1.2,7.59-3.35,15.45-8.34,21.48c-4.85,5.82-14.03,6.56-20.12,2.32   c-6.79-4.6-10.37-12.42-13.22-19.83c-2.48-6.09-3.52-12.63-5.74-18.79c-0.47,5.08-0.55,10.18-1.25,15.23   c-3.44,25.89-8.01,51.87-6.87,78.09c0.56,7.29,1.35,14.88,4.86,21.43c2.16,4.17,6.79,7.13,11.6,6.27   c8.54-1.15,15.36-6.93,22.24-11.64c-5.14,5.7-11.33,10.69-18.39,13.77c-5.38,2.28-12.09,1.84-16.49-2.24   c-5.96-5.44-8.28-13.55-10.09-21.13c-3.06-14.35-3.56-29.1-3.69-43.72c-6.38,12.27-13.55,24.11-21.57,35.37   c-4.99,7.28-10.25,14.73-12.51,23.39c-1.09,3.86,0.03,8.17,3.11,10.8c5.5,4.9,12.69,7.22,19.57,9.45   c14.2,4.25,28.6,8.08,42.23,14.01c11.51,5.15,22.94,11.97,30.18,22.59c6.79,9.95,7.86,22.65,6.14,34.29   c-0.26,2.52-1.26,5.2-0.02,7.62c2.75,6.36,4.75,13.05,5.74,19.91c2.87,19.98-0.64,40.19-5.64,59.54l1.89-0.24   c-0.72,0.37-1.42,0.76-2.11,1.15c-6.75,24.99-16.12,49.21-22.2,74.38c-4.48,18.43-6.36,38.25-0.28,56.55   c2.3,0.76,4.59,1.58,6.93,2.32c-0.55,0.09-1.63,0.28-2.18,0.37c0.94,0.47,1.9,0.96,2.88,1.46c-1.44,0.31-2.87,0.62-4.27,0.93   c-0.4-0.07-1.19-0.2-1.59-0.27c0.46,1.01,0.92,2.02,1.42,3.06c-0.37,0.55-1.12,1.66-1.49,2.22c-1.18-2.08-2.22-4.21-3.23-6.35   c-4.55-2.17-9.09-4.57-12.71-8.13c-7.3-6.95-11.33-17.05-11-27.1c-0.22-10.02,4.12-19.24,7.7-28.35   c3.33-9.05,6.67-18.21,8.24-27.76c-5.58,13.79-13.25,26.75-22.76,38.19c-5.62,6.31-8.41,14.69-9.35,22.97   c-1.87,17.06,6.76,34.67,21.26,43.8c9.22,6.19,20.57,7.13,30.86,10.69c12.93,1.77,25.75,5.15,37.34,11.29   c16.67,8.48,30.69,22.5,38.13,39.77c4.47,9.34,5.66,19.74,8.93,29.49c2.9,9.2,0.93,18.99,3.23,28.28c-0.39,0.5-1.17,1.48-1.56,1.97   c-0.14-0.49-0.44-1.46-0.59-1.95c-3.55,17.42-9.78,34.19-12.76,51.74c-1.62,9.83-2.06,20.12,0.82,29.77   c2.58,7.48,8,13.57,13.76,18.83c7.15,6.35,15.58,11.47,24.88,13.96c6.95,1.83,14.88,1.59,20.95-2.66   c6.46-3.9,10.21-11.08,11.13-18.42c0.87,0.87,1.76,1.75,2.67,2.65c-1.01,8.86-6.45,17.09-14.44,21.15   c-7.75,4.54-17.29,4.18-25.67,1.78c-12.03-3.48-23.02-10.31-31.83-19.16c-5.31-5.3-9.76-11.66-11.73-18.96   c-4.07-13.36-3.15-27.54-1.38-41.2c-3.35,6.18-8.52,11.36-10.58,18.21c-2.84,8.64-3.32,17.92-2.69,26.94   c1.45,19.29,11.67,37.72,27.33,49.1c14.08,9.47,28.15,19.01,41.39,29.66c13.41,10.8,26.76,22.16,36.52,36.51   c10.23,14.74,16.78,32.58,15.7,50.7c-0.86,14.26-5.66,29.13-16.66,38.83c-14.05,12.73-34.86,15.72-52.83,11.17   c-16.48-4.09-30.99-16.58-35.99-33.01c-4.11-13.19-1.14-27.07,0.43-40.4c2.95,6.49,5.28,13.24,8.05,19.82   c3.04,7.04,7.4,13.97,14.17,17.95c10.2,5.86,24.21,4.05,32.55-4.26c5.98-5.98,7.32-15.09,6.17-23.15   c-2.2-15.55-10.54-29.76-21.65-40.66c-12.45-12.95-27.66-23.1-38.88-37.25c-10.5-13.01-20.5-27.09-35.03-35.94   c-2.08-1.83-3.47-4.23-4.36-6.8c-10.01-25.73-24.81-49.81-44.68-69.1c-9.34-9.89-20.63-17.61-31.95-25   c-16.16-9.19-33.01-17.18-50.44-23.64c-28.92-10.95-58.88-19.14-87.09-31.94c-16.24-7.91-32.18-16.57-46.9-27.08   c-9.02-6.88-18.06-13.81-26.13-21.79c-9.8-9.35-18.05-20.15-26.08-31.01c-11.49-17.9-21.28-37.03-27.58-57.4   c-3.07-8.8-3.79-18.15-4.56-27.36c-0.42-10.32,1.47-20.56,3.51-30.62c1.66-6.35,4.04-12.48,6.02-18.73   c7.87-18.81,18.13-36.56,29.72-53.32c2.73-4.11,6.03-7.91,7.87-12.54c-3.73,2.1-5.27,6.35-8.09,9.37   c-4.92,5.5-8.59,11.93-12.99,17.84c-12.2,18.09-22.89,37.59-28.13,58.93c-2.5,8.46-2.96,17.32-3.7,26.06   c0.45,12.12,1.89,24.34,5.97,35.84c2.84,7.64,5.87,15.21,9.32,22.6c2.98,7.56,7.68,14.24,11.79,21.22   c5.02,7.54,9.94,15.23,16.29,21.76c24.74,29.17,56.97,51.1,91.14,67.82c11.2,5.89,22.89,10.72,34.65,15.36   c7.94,2.4,15.35,6.22,23.21,8.86c12.52,4.64,25.08,9.21,37.27,14.66c7.2,3.04,14.63,5.64,21.44,9.54   c9.56,5.33,19.55,10.05,28.32,16.69c22.5,16.03,40.89,37.47,54.44,61.48c2.78,6.16,6.71,11.75,9.09,18.11   c3.72,9.45,7.98,18.75,10.32,28.68c2.43,8.33,4.67,16.77,5.52,25.44c2.17,18.5,2.53,37.53-2.34,55.66   c-1.72,7.71-4.56,15.1-7.72,22.32c-1.99,4.52-5.22,8.4-6.9,13.08c3.19-2.65,4.89-6.53,7.07-9.96c9-14.81,13.2-31.99,15.24-49.05   c2.61-25.65-1.6-51.64-10.31-75.81c0.6,0.13,1.79,0.37,2.39,0.5c10.86,11.73,16.77,27.22,19.81,42.71c2.6,16.58,0,33.6-4.76,49.56   c-5.08,16.52-13.27,32.01-23.68,45.78c-10.21,13.73-21.34,27.44-26.52,44.02c-2.85,9.64-3.73,20.6,0.81,29.88   c3.65,7.66,11.63,12.66,19.97,13.53c12.07,1.39,24.31-3.84,32.72-12.39c4.36-4.43,8.61-9.63,9.55-15.96   c0.59-3.57-1.69-6.57-3.53-9.34c12.05,7.82,23.14,17.92,29.76,30.86c3.71,7.38,5.17,16.35,2,24.19   c-3.31,8.08-10.41,13.91-17.94,17.95c-8.73,4.78-18.81,6.58-28.68,6.65c-9.15-0.35-18.47-1.46-26.95-5.11   c-8.12-3.64-15.81-8.15-23.5-12.59c-12.58-7.53-23.55-18.62-28.64-32.57c-4.53-12.11-3.98-25.71-0.05-37.9   c5.88-19.61,16.4-37.41,22.58-56.91c2.94-9.78,5.39-20.03,4.19-30.3c-1.11-10.29-6.03-19.86-12.76-27.59   c-7.49-8.54-16.08-16.12-22.7-25.41c6.9,17.15,12.09,35.43,11.32,54.08c-0.51,11.99-3.19,23.83-7.36,35.07   c-7.97,20.88-12.46,43.51-9.95,65.89c1.87,16.25,8.33,32.32,19.93,44.07c5.8,6.08,12.79,10.87,20.17,14.83   c8.57,4.59,17.55,8.65,27.1,10.69c-3.17,0.52-6.36-0.15-9.47-0.64c-22.25-3.59-44.72-11.58-61.2-27.5   c-13.63-12.91-21.69-30.86-24.47-49.26c-1.42-10.01-2.36-20.29-0.39-30.28c2.35-14.51,5.94-29.12,4.55-43.91   c-0.68-5.74-2.6-12.43-8.3-15.02c-19.49-8.81-38.07-20.51-52.35-36.62c-11.8-13.18-20.15-29.62-22.8-47.18   c-3-19.75-0.41-40.59,8.77-58.45c3.14-6.59,7.33-12.6,11.23-18.75c3.45-7.83-0.32-18.06-7.93-21.96   c-5.19-2.96-11.34-2.56-17.06-3.32c-7.91-0.98-15.52-4.66-20.91-10.57c-6.78-7.38-11.39-16.45-18.26-23.75   c-5.68-6.35-12.91-11.03-20.47-14.82c7.15,19.12,12.34,39.08,14.15,59.46c1.83,15.31,0.29,30.73,0.31,46.09   c0.37,9.04,0.5,18.79,5.68,26.6c6.45,10.11,14.55,19.26,19.17,30.45c6.9,15.54,5.35,33.81-1.45,49.1   c-6.99,15.6-19.57,27.85-32.95,38.1c-13.57,10.54-28.52,19.18-41.82,30.08c-9.49,7.74-16.64,17.91-22.47,28.59   c-8.22,15.3-13.93,31.96-16.73,49.11c-2.54,16.39-2.61,34.01,4.62,49.31c4.08,8.94,11.3,16.35,20.09,20.76   c-0.1,0.86-0.3,2.58-0.4,3.45c-15.04-4.98-26.13-18.02-31.3-32.68c-7.53-21.4-6.42-44.77-2.29-66.76   c-1.48,1.88-2.99,3.73-4.46,5.61c-0.66-3.63,2.47-6.24,4.15-9.08c10.3-15.67,20.03-31.94,26.39-49.65   c5.72-17.85,7.73-37.62,1.7-55.65c-5.64-17.82-17.41-32.7-28.82-47.16c-5.59-7.41-11.77-14.36-17.05-22   c-12.46-16.84-19.72-37.32-21.69-58.12c-1.3-8.3-1.28-16.7-1.85-25.04c-0.96-15.12,1.71-30.22,0.48-45.33   c-1.82,4.19-1.58,8.81-2.04,13.27c-2.5,23.85-4.41,48.22,0.53,71.91c1.24,8.15,4.28,15.85,7.28,23.49   c3.53,8.84,9.4,16.44,15.26,23.86c12.14,14.97,25.27,29.38,34.4,46.5c4.76,8.48,7.94,17.81,10.02,27.28   c4.6,22.85-1.7,46.46-12.51,66.65c-3.05,6.73-7.08,12.92-10.76,19.3c-5.99,9.13-11.07,18.81-16.55,28.25   c-8.25,16.44-15.26,34.18-15.47,52.81c-0.09,4.71-0.37,9.49,0.69,14.14c1.15-9.38,0.92-18.96,3.3-28.16   c1.12-4.2,1.57-8.93,4.71-12.22c-4.03,16.47,1.35,33.03,4.36,49.17c2.23,11.78,3.92,24.3-0.12,35.89   c-2.83,8.28-8.85,15.18-16.13,19.9c-8.65,5.82-18.96,8.22-28.79,11.27c0.81,8,1.39,16.18-0.3,24.13   c-1.95,9.14-5.3,18.09-10.54,25.89c-7.86,11.93-19.78,20.67-32.81,26.25c-20.96,8.95-43.84,11.49-66.12,15.24   c-19.58,3.28-39.93,6.75-56.88,17.74c-11.82,7.49-20.81,19.17-24.89,32.57c-0.42,0.49-1.26,1.47-1.68,1.95   c-0.52-0.68-1.02-1.36-1.49-2.02c1.84-7.8,5.34-15.17,9.97-21.68c3.74-5.53,9.02-9.65,13.82-14.18   c-12.08,10.06-23.88,20.45-35.92,30.56c0.28-4.28,3.12-8.51,1.23-12.72c-0.1-0.36-0.28-1.07-0.38-1.43   c0.19-6.16,0.23-12.32-0.65-18.42c-1.1-19.6,0.86-39.32-1.25-58.86c-0.13-9.46,0.14-18.92-0.17-28.37l0.53-0.57   c6.61-6.82,15.11-11.35,22.63-17.04c13.68-9.29,28.06-17.65,40.58-28.54c4.25-3,7.96-6.63,11.2-10.69   c13.9-13.41,21.3-32.95,20.48-52.19c0.49-21.49-7.15-42.46-18.34-60.54c-9.19-15.34-20.99-28.87-33.16-41.87   c-6.41-5.63-11.44-12.53-17.5-18.48c-11.29-12.55-21.64-25.92-31.15-39.85l-0.22-0.56c-0.03-7.41,0.4-14.83-0.17-22.22   c-1.83-12.63,0.42-25.46-1.57-38.07c-0.26-18.15-0.3-36.31-0.07-54.46c0.16-3.06,0.12-6.12,0.09-9.16   c0.11-0.17,0.32-0.52,0.42-0.69c-0.52-0.62-1.03-1.22-1.53-1.81c0.45-2.26,1.05-4.56,0.79-6.87c-1.94-12.88-0.09-25.96-1.21-38.9   c-0.4-3.93,0.63-7.88-0.09-11.78c-0.69-4.07-0.64-8.2-0.56-12.3c-0.08-14.76,0.25-29.53-0.72-44.26c-0.28-2.39,0.08-4.77,0.6-7.08   c12.75,1.42,25.51,3.02,38.03,5.94c9.11,2.19,18.44,4.74,26.24,10.17c4.74,3.19,8.41,8.31,8.74,14.15   c0.49,8.38-3.66,16.11-7.93,23.02c-3.08,5.11-7.05,9.59-10.41,14.5c-1.59,2.14-2.1,5.82,0.59,7.35c5.63,3.41,12.59,2.79,18.9,2.69   c20.71-1.31,41.01-6.23,60.9-11.92c17.23-5.18,34.24-11.28,50.33-19.37c7.32-3.76,14.47-7.99,20.78-13.31   c9.59-8.08,20.34-14.61,30.66-21.69c-7.37-4.57-14.09-10.13-19.77-16.7c-13.96,11.45-32.1,16.64-49.95,16.95   c-21.02,0.46-42.37-3.11-61.55-11.9c-14.82-6.61-28.13-16.12-40.65-26.33c-16.4-13.24-32.71-26.6-48.31-40.76   c-6.27-5.79-12.6-11.56-18.15-18.05c-0.38-0.48-1.14-1.45-1.52-1.93l-0.25-0.29c19.2-18.78,37.69-38.29,57.19-56.76   c11.7,11.57,24.26,22.24,36.77,32.91c15.96,13.15,33.49,24.69,52.78,32.35c11.39,4.17,23.54,7.58,35.78,6.26   c4.83-0.44,9.09-2.9,13.3-5.1c-3.72,4.75-9.72,6.73-15.45,7.73c9.09,2.16,18.57,2.2,27.85,1.48c3.81-11.58,5.68-24.11,3.03-36.15   c-3.89-17.33-12.58-33.03-17.99-49.85c-7.81-22.99-8.53-48.29-2.37-71.75c3.74-15.41,11.91-29.59,22.87-40.99   c14.47-15.06,32.9-25.53,51.79-34.05c4.81-1.95,9.59-3.99,14.35-6.08c9.69-3.77,20.07-6.14,28.84-11.94   c6.96-4.13,13.83-8.56,19.67-14.22c6.17-6,10.34-13.76,13.31-21.77c2.52-6.88,3.45-14.9,0.09-21.65   c-3.53-7.26-10.64-11.8-17.64-15.26c-14.34-6.88-30.1-10.08-44.63-16.52c-13.75-6.21-25.96-16.52-33.1-29.94   c-5.61-10.7-8.14-22.85-8.19-34.88c0.53-6.9,3.09-13.46,3.87-20.34c1.22-8.81,1.87-18.86-3.64-26.46   c0.49,10.08-0.22,20.33-3.82,29.84c-3.04,9.82-9.14,18.61-10.41,28.96c-0.86,5.73,0.45,11.73,3.58,16.6   c6.43,10.31,16.72,17.71,22.23,28.66c3.11,5.83,4.33,13.01,1.85,19.29c-1.63,3.9-3.75,7.78-7.2,10.37   c3.37-6.4,8.03-13.35,5.63-20.94c-5.22-17.15-24.37-24.6-31.09-40.86c-3.68-9.39-2.18-19.97,1.2-29.22   c3.99-10.84,8.14-22.11,7.4-33.86c-0.66-8.03-2.86-16.24-7.7-22.78c-3.7-3.65-7.53-7.22-11.66-10.38   c2.77,5.74,7.25,10.52,9.39,16.6c2.85,6.82,2.98,14.83-0.26,21.54c-4.81,10.34-15.05,16.78-20.25,26.85   c-2.21,4.12-2.03,8.89-2.47,13.41c-1.27-5.67-0.87-11.79,2-16.93c4.72-9.65,13.87-16.72,16.86-27.28   c1.87-6.36-0.46-13.07-4.03-18.37c-10.12-15.03-26.55-25.37-33.75-42.43c-7.41-19.11-1.77-40.88,9.55-57.24   c2.96-3.54,3.15-8.27,4.37-12.51c2.14-7.83,5.88-15.12,10.28-21.9c4.26-6.9,8.18-14.38,9.03-22.57   c1.14-14.4-4.92-29.53-16.67-38.22c-10.05-7.61-23.31-8.47-33.92-15.04c-10.11-5.63-17.77-14.7-23.42-24.64   c-3.97-7.51-10.91-13.11-18.64-16.4c-3.14,3.36-6.93,6.05-10.03,9.43c-0.71,5.1-1.02,10.45,0.19,15.5c1.43,4.75,6.5,6.68,10.8,7.99   c12.88,3.63,26.3,6.36,37.93,13.29c6.29,3.89,12.08,9.34,14.51,16.5c2.4,6.67,1.93,14,0.11,20.74c-0.87,0.48-1.72,0.96-2.56,1.44   c0.15-5.77,0.31-11.56-0.13-17.33c-0.55-0.36-1.66-1.1-2.21-1.47c-3.56-7.57-10.86-12.38-18.55-15.05   c-10.98-4.02-22.73-4.92-34.1-7.32c-6.88-1.49-13.78-5.13-17.27-11.48c-2.41-3.99-3.06-8.66-3.75-13.18   c-22.55,11.71-47.79,17.53-73.08,18.7c-9.02,1.52-18.03,3.11-27.18,3.59c-0.44,0.03-1.31,0.1-1.75,0.13   c-0.52-0.6-1.04-1.2-1.54-1.79c0.26-0.38,0.77-1.14,1.03-1.52c-1.15-5.63,0.43-11.31-0.32-16.95c-0.61-7.32-0.02-14.67-0.27-22   c-0.24-4.34-1.08-8.63-0.98-12.98c0.14-11.68-0.07-23.36-0.03-35.04c-0.11-7.69,0.44-15.42-0.78-23.05   c-0.25-8.71-0.59-17.49,0.48-26.16c0.42-2.56-1.23-4.75-2.24-6.94c0.69-1.57,1.41-3.15,1.82-4.82c-1.9-1.74-4.16-3.1-5.63-5.27   c3.65,1.55,7.43,3.14,11.46,3.15c3.98-0.01,7.95-0.51,11.94-0.56c2.04-0.19,4.44,0.23,6.1-1.29c7.7-6.22,12.56-15.06,17.48-23.47   C733.84,32.15,741.2,20.14,751.48,10.67 M772.39,47.24c-14.78,2.16-26.97,11.9-36.84,22.53c-5.29,6.16-9.84,12.91-14.06,19.83   c-2.68,6.37-7.37,12.13-8.06,19.17c1.57-1.19,2.81-2.73,3.67-4.51c5.35-9.94,12.42-18.78,19.55-27.48   c6.11-6.29,12.17-12.86,19.81-17.34c12.5-9,30.16-12.46,44.3-5.23c5.58,2.87,11.33,5.85,15.53,10.65   c4.24,3.79,8.02,8.03,11.46,12.55c12.87,17.79,24.17,36.74,38.12,53.74c4.57,5.75,10.49,10.13,15.95,14.97   c8.46,4.87,17.58,10.1,27.7,9.56c9.51,0.79,18.92-1.76,27.63-5.4c4.2-2.28,8.99-3.92,12.26-7.55c-6.08,1.68-11.71,4.69-17.85,6.16   c-8.01,2.34-16.53,2.25-24.74,1.33c-9.02-2.03-17.45-6.53-24.56-12.38c-22.57-20.84-36.9-48.79-58.86-70.18   c-8.48-8.33-18.58-15.21-29.88-19.04C786.62,47,779.43,45.87,772.39,47.24 M753.73,98.89c-9.33,4.87-17.21,12-24.5,19.48   c-5.49,4.91-9.65,11.04-14.29,16.71c-3.13,4.35-6.42,8.74-8.43,13.73c4.33-2.69,6.34-7.76,10.17-11.04   c4.03-4.89,8.41-9.46,13-13.84c8.39-7.47,16.89-15.08,27.06-20.08c14.14-8.77,32.62-11.51,48.13-4.78   c13.15,5.38,21.99,17.23,29.15,28.99c5.62,9.79,10.85,19.8,16.46,29.59c5.14,8.24,11.15,16.52,19.96,21.13   c8.29,5.31,18.43,5.95,27.98,6.69c11.6-0.51,23.21-2.62,34.07-6.8c21.16-7.43,40.56-19.66,62.62-24.54   c9.86-2.68,20.29-3.37,30.38-1.59c4.38,0.34,8.6,2.06,13.04,1.85c-7.3-3.18-15.08-5.43-23.04-6.03c-5.66-0.9-11.42-0.82-17.02,0.33   c-11.14,1.25-21.85,4.72-32.33,8.54c-19.83,8.08-39.16,18.6-60.72,21.28c-10.23,0.69-20.91,0.7-30.49-3.43   c-10.82-5.27-18.78-14.81-25.03-24.84c-4.66-6.26-7.68-13.49-11.99-19.96c-5.09-8.96-10.68-17.78-18.17-24.95   c-7.7-8.45-18.68-13.58-29.91-15.16C777.19,88.2,764.55,92.64,753.73,98.89 M913.75,236.3c7.48,5.79,14.48,12.67,18.78,21.22   c4.89,7.87,6.98,16.99,9.28,25.84c2.41,9.55,2.47,19.45,3.6,29.18c0.18,7.04-0.1,14.1,0.68,21.12   c-0.68,10.32-0.42,20.68-0.44,31.03c0.64,5.63,0.86,11.29,0.95,16.95c2.17,18.74,5.41,37.38,10.3,55.6   c3.25,9.17,5.61,18.82,10.85,27.12c8.24,16.27,21.63,29.78,37.71,38.35c18.61,10.11,39.19,15.73,59.09,22.64   c17.74,6.35,35.71,14.47,48.69,28.57c10.82,10.27,20.82,21.51,28.59,34.29c6.26,8.78,10.09,18.94,14.1,28.87   c4.47,14.05,7.23,28.79,6.64,43.59c0.31,11.39-1.09,22.74-3.19,33.92c-3.96,18.89-9.28,37.53-16.55,55.42   c-3.81,10.82-7.81,22-7.44,33.64c-0.24,8.36,1.86,17.11,6.9,23.91c-0.01-3.23-2.02-5.89-2.88-8.88   c-2.36-6.72-2.61-14.12-1.12-21.05c2.14-12.21,7.09-23.7,12.22-34.9c3.52-8.69,6.32-17.63,9.51-26.43   c1.4-4.98,2.45-10.06,3.93-15.02c5.92-24.2,7.81-49.83,2.07-74.26c-4.75-18.75-13.29-36.56-25.12-51.86   c-4.58-7.23-11.28-12.71-16.67-19.28c-6.57-6.15-12.94-12.62-20.49-17.58c-18.25-12.65-40.24-17.58-61.18-23.84   c-16.99-5.47-34.57-10.85-48.76-22.13c-7.98-5.64-14.12-13.36-19.49-21.43c-10.54-16.96-14.68-36.79-17.93-56.22   c-1.61-13.67-4.44-27.28-4.04-41.09c-1.98-18.94,0.26-38.08-1.67-57.03c-0.84-20.76-4.5-41.98-14.9-60.25   c-4.81-7.93-11.13-15.07-19.14-19.89C915.87,236,913.73,234.61,913.75,236.3 M1092.59,269.85c-0.45,2.62,1.54,4.86,2.52,7.15   c6.85,14.08,15.33,27.44,26.05,38.89c3.59,3.11,5.97,7.39,9.95,10.1c5.85,5.6,12.05,10.97,19.29,14.74   c5.75,3.85,11.98,7,18.42,9.55c16.3,5.64,30.79,15.99,41.66,29.36c11.2,14.59,18.87,31.85,22.32,49.93   c3.54,19.98,2.57,41.72-7.75,59.68c-4.36,7.2-9.55,13.86-13.79,21.13c-6.27,8.56-12.01,17.5-17.47,26.58   c-2.1,3.9-3.36,8.16-4.72,12.35c-2.38,7.24-2.29,15.53,1.37,22.35c3.27,6.99,9.42,11.88,14.78,17.2c2.7,2.6,6.13,4.48,8.21,7.71   c1.92,3.1,5.51,4.54,7.61,7.49c2.58,3.7,6.21,6.5,8.91,10.12c6.56,7.61,12.45,15.81,17.53,24.48c3.86,5.53,6.06,11.93,8.93,17.98   c5.24,12.05,7.97,24.99,9.82,37.94c1.09,10.15,0.14,20.56-3.74,30.06c-7.85,19.69-20.46,36.98-33.2,53.75   c-5.72,9.01-12.65,17.3-16.98,27.13c-4.22,8.61-8.32,18.34-5.9,28.08c0.48,5.67,3.95,10.38,7.37,14.69   c5,5.37,10.1,10.75,16.32,14.75c9.01,6.8,19.64,10.81,29.44,16.28c8.19,3.67,16.51,7.07,24.87,10.37   c5.25,2.47,10.33,5.3,15.88,7.09c8.07,4.05,16.18,8.17,23.61,13.36c5.4,4.53,10.79,9.38,14.49,15.47c-0.19-1.61-0.29-3.31-1.36-4.6   c-5.5-8.09-13.47-14.15-21.59-19.43c-16.53-10.16-34.63-17.25-51.93-25.93c-17.68-8.43-35.88-18.27-47.45-34.58   c-4.89-6.49-4.52-15.45-2.11-22.83c2.25-8.49,7.78-15.49,12.17-22.93c3.48-6.31,8.5-11.54,12.45-17.53   c12.67-17.77,26.29-35.69,32.04-57.11c3.47-11.78,2.5-24.29,0.12-36.18c-3.36-18.12-10.24-35.49-20.17-51   c-11-16.58-24.88-31.1-39.75-44.23c-5.26-5.44-12.05-9.35-16.11-15.89c-4.98-6.32-4.97-14.85-3.81-22.41   c1.43-5.69,4.26-10.88,6.95-16.04c10.43-18.21,24.49-34.08,34.13-52.76c10.06-25.54,8.25-54.76-1.95-79.96   c-2.25-7.15-6.71-13.29-10.37-19.75c-5.7-8.43-12.93-15.71-20.55-22.39c-7.67-5.34-15.58-10.5-24.45-13.63   c-18.14-6.29-34.76-17.03-47.91-31.04c-12.8-12.72-23.44-27.57-31.34-43.79C1094.78,270.82,1093.69,268.46,1092.59,269.85    M890.24,394.75c3.34,4.85,6.35,10.18,10.97,13.95c-1.42-3.97-4.21-7.23-5.91-11.07c-5.21-9.97-7.62-21.05-9.32-32.07   C883.54,375.33,884.49,386.26,890.24,394.75 M960.13,458.55c-3.68,3.54-6.02,8.19-7.77,12.92c-2.49,7.01-4.06,14.79-1.71,22.07   c2.75,10.74,10.95,18.94,19.79,25.1c6.4,5.27,13.97,8.71,21.14,12.76c23,11.64,47.34,20.33,70.55,31.5   c6.52,3.6,13.63,6.06,19.81,10.28c10.24,5.99,20.46,12.58,28.05,21.85c2.5,3.51,5.14,6.93,7.41,10.6   c4.91,9.36,6.19,20.29,4.68,30.68c-3.2,18.69-9.69,36.57-15.02,54.71c-6.72,20.06-12.47,40.57-14.9,61.64   c-3.76,31.48,7.86,63.85,29.18,87.03c6.05,6.64,12.28,13.25,19.69,18.39c7.18,6.43,15.4,11.59,23.78,16.31   c15.9,9.79,33.43,16.51,50.94,22.76c15.3,3.93,30.04,9.68,44.64,15.63c10.63,4.79,20.97,10.19,31.33,15.56   c13.84,8.16,27.54,16.76,39.58,27.49c8.12,6.2,14.82,14.15,20.14,22.85c2.61,3.93,3.28,8.67,4.77,13.07   c0.86-7.26-2.85-14.23-6.71-20.12c-3.44-5.14-7.17-10.12-11.78-14.26c-14.73-15.1-32.24-27.18-50.62-37.39   c-17.62-10.36-36.48-18.42-55.72-25.21c-19.09-5.38-37.6-12.72-55.15-21.95c-17.51-8.86-33.88-20.3-47.54-34.45   c-7.84-7.39-13.65-16.56-19.34-25.62c-2.67-5.75-5.87-11.28-7.55-17.42c-4.22-10.34-5.38-21.59-5.98-32.63   c0.41-4.7,0.56-9.41,0.67-14.11c3.5-36.23,18.44-69.85,26.8-104.99c2.39-10.13,3.45-20.96,0.45-31.08   c-2.15-8.99-7.37-16.9-13.46-23.73c-9.64-10.37-21.56-18.36-33.88-25.19c-10.06-5.03-20.01-10.34-30.53-14.37   c-18.77-8.42-38.2-15.3-56.61-24.52c-7.94-4.5-16.26-8.54-23.06-14.73c-5.04-4.74-10.38-9.79-12.39-16.63   c-3.39-9.56-0.8-19.97,3.62-28.73C958.45,462.66,959.92,460.83,960.13,458.55 M1205.76,575.78c0.31,1.28,1.08,1.49,2.33,0.65   C1207.74,575.13,1206.96,574.92,1205.76,575.78 M1215.54,578.88c11.67,3.35,23.1,7.6,34.2,12.53   c17.05,7.66,33.94,17.35,45.66,32.26c0.01-10.08-5.43-19.74-13.92-25.12c-11.36-7.71-24.91-11.03-38.11-14.03   C1234.11,582.53,1224.84,580.59,1215.54,578.88 M1241.3,603.69c1.54,2.13,3.38,4.03,5.18,5.97c12.59,13.99,22.49,30.4,28.87,48.11   c6.2,16.55,8.76,34.23,9,51.84c2.65,9.74,4.3,19.85,3.63,29.97c-0.93,22.62-9.67,43.95-19.38,64.08   c-3.72,7.68-5.82,16.46-4.11,24.96c1.61,8.31,6.95,15.7,14.15,20.1c-4.54-16.33-4.7-33.6-1.62-50.21   c4.41-25.47,12.81-50.01,18.81-75.11c-3.88-1.23-6.73-4.38-7.78-8.28c-3.08-10.58-2.03-21.79-1.04-32.6   c1.23-13.12,5.09-25.81,7.1-38.8c-2.24-4.99-5.67-9.37-9.26-13.45C1273.17,617.51,1257.17,609.85,1241.3,603.69 M1299.14,657.58   c-5.32,16.49-10.07,33.57-9.64,51.05c0.3,4.92,1.11,11.6,6.72,13.2c3.22-14.52,6.05-29.3,5.75-44.24   C1301.74,670.88,1301.56,663.91,1299.14,657.58 M912.33,734.57c-8.41,18.38-11.39,39.19-8.56,59.19   c3.1,22.39,13.76,43.18,14.96,65.91c0.62,10.77-2.16,21.33-5.8,31.38c6.37,0.45,13.24-0.53,18.37-4.63   c7.69-6.07,11.86-17.32,7.82-26.63c-1.28-3.6-4.38-5.94-6.69-8.81c8.07,3.69,12.2,12.28,12.69,20.81   c1.2-7.25-0.78-14.46-3.35-21.18c-3.75-10.34-9.14-20-12.84-30.35c-3.84-11.43-5.68-23.62-4.54-35.66   c0.35-4.35,1.85-8.62,1.3-13.02c-1.44-18.72,3.32-37.49,11.53-54.23c2.66-5.73,6.21-10.96,9.18-16.51   C932.2,708.56,919.3,719.73,912.33,734.57 M1317.37,891.61c7.67,5.89,15.29,12.04,21.41,19.63c2.31,3.11,5.83,4.88,8.9,7.14   c7.48,5.39,14.14,11.88,19.76,19.2C1359.39,915.37,1339.67,898.53,1317.37,891.61 M959.24,904.32   c-8.57,15.24-18.69,29.62-30.44,42.57c1.97,4.39,5.67,7.92,9.14,11.23c3.62,3.02,7.18,6.35,11.53,8.3c5.18-2.69,10-6.05,15.08-8.93   c3.14-1.81,6.26-3.64,9.35-5.53c0.91-4.79,1.48-9.63,2.23-14.43c0.37-2.81,1.66-5.88-0.2-8.44c-4.91-8.78-7.57-18.51-11.48-27.7   c-0.08-1.36-0.19-2.72-0.32-4.05C961.72,899.02,960.74,901.91,959.24,904.32 M904.83,1012.33c-0.8,1.26-1.27,2.69-1.34,4.19   c-0.67,8.22-3.66,15.98-5.26,24.03c-2.56,6.86-4.48,13.94-7.17,20.76c-7.01,19.87-14.55,40.02-15.55,61.3   c-0.13,10.36-0.6,20.79,1.16,31.06c1.68,14.49,5.48,28.59,9.29,42.64c2.72,8.39,5.2,16.9,8.78,24.99   c9.09,25.19,22.77,49.21,25.66,76.26c0.65,8.04,1.22,16.2-0.86,24.11c-2.12,9.76-6.85,18.97-13.57,26.34   c-7.9,10.36-18.67,18.05-27.02,27.99c-5.56,8.57-10.67,18.07-10.6,28.58c-1.9,22.95,8.65,44.43,10.22,67.04   c0,8.48,0.66,17.29-2.7,25.31c-2.1,7.37-6.87,13.59-12.15,19c-6.96,6.19-15.21,10.64-23.79,14.17   c-18.92,8.14-39.64,13.04-56.44,25.43c2.39,0.02,4.33-1.45,6.34-2.54c4.81-2.71,9.96-4.73,15.02-6.91   c8.85-3.94,18.39-6.02,27.31-9.78c14.05-4.43,28.13-10.73,38.36-21.66c8.29-8.89,11.91-21.09,12.89-32.97   c1.04-19.78-5.46-38.77-8.94-58c-1.43-10.52-2.34-21.63,1.37-31.8c2.75-8.29,7.91-15.66,14.37-21.49   c13.86-13.54,28.44-28.33,32.96-47.86c4.46-19.92-0.33-40.44-6.09-59.58c-3.81-9.94-6.97-20.13-11.09-29.95   c-4.05-12.07-8.74-23.96-11.56-36.4c-5.54-20.89-9.71-42.29-9.9-63.96c-0.51-21.87,6.51-42.88,12.35-63.67   C901.65,1050.54,907.8,1031.51,904.83,1012.33 M918.95,1420.98c-4.14,10.83-2.13,22.63-0.65,33.77c9.02-3.1,18.38-6.2,25.84-12.37   c5.44-4.44,9.57-10.76,10.51-17.8c1.36-9.98-1.39-19.85-3.78-29.45C937.1,1398.31,924.3,1407.63,918.95,1420.98 M884.45,1521.72   c5.7-3.89,10.43-9.21,14.03-15.07C893.74,1511.61,889.1,1516.67,884.45,1521.72z"/>
	<path fill="#6A281A" stroke="#6A281A" stroke-width="0.5" d="M557.46-9.52c7.25-1.59,14.58-2.95,22.03-2.9   c17.59,0.06,35.72,4.34,50,14.99c11.81,8.66,20.12,21.03,27.31,33.58c6.45,10.94,12.34,23,23.25,30.24   c1.47,2.17,3.73,3.53,5.63,5.27c-0.41,1.67-1.13,3.25-1.82,4.82c1.01,2.19,2.66,4.38,2.24,6.94c-1.07,8.67-0.73,17.45-0.48,26.16   c1.22,7.63,0.67,15.36,0.78,23.05c-0.04,11.68,0.17,23.36,0.03,35.04c-0.1,4.35,0.74,8.64,0.98,12.98c0.25,7.33-0.34,14.68,0.27,22   c0.75,5.64-0.83,11.32,0.32,16.95c-0.26,0.38-0.77,1.14-1.03,1.52c0.5,0.59,1.02,1.19,1.54,1.79c-22.61,1.1-45.54-1.19-67.17-8.04   c-21.13-6.54-41.4-17.77-55.52-35.12c-4.4,3.27-9.09,6.5-11.96,11.3c-3.64,5.91-7.12,12-11.97,17.02   c-6.83,7.44-15.75,12.68-25.24,15.98c-5.46,12.08-5.65,26.43-0.18,38.54c7.3,16.25,20.13,29.23,27.61,45.38   c5.96,12.17,7.52,26.57,3.3,39.54c-3.31,11.04-10.58,20.36-18.72,28.31c-7.27,7.44-15.86,14.11-20.37,23.74   c-3.8,8.11-3.31,18.1,1.43,25.72c5.01,8.26,13.22,13.93,21.65,18.28c-3.2,1.11-6.37-0.58-9.52-0.97   c-9.58-5.14-18.08-13.45-21.11-24.13c-2.12-8.51-1.32-17.87,2.92-25.62c7.64-14.42,22.07-23.78,29.59-38.28   c5.52-10.34,6.85-23.07,2.44-34.06c-5.38-13.89-16.08-24.64-24.57-36.6c-6.46-8.87-12.2-18.6-14.44-29.46   c-1.8-6.93-1.56-14.13-1.37-21.21c-10.95,7.8-17.21,21.12-17.39,34.44c-0.4,9.61,4.14,18.49,8.95,26.5c3.78,5.84,7.13,12,9.37,18.6   c3.89,11.17,4.65,23.13,4.51,34.86c0.2,17.11-3.03,34.63-11.58,49.62c-7.92,14.26-20.32,25.63-34.25,33.91   c-4.01,2.27-7.12,5.96-8.67,10.3c-3.07,8.32-2,17.4-0.47,25.93c1.19,7.01,3.92,13.89,3.09,21.12c-0.9,17.38-7.67,34.87-20.81,46.65   c-12.22,11.91-28.8,17.24-44.71,22.22c-11.1,3.85-22.8,7.43-31.86,15.25c-5.74,4.83-8.99,12.43-8.16,19.93   c0.93,8.6,4.79,16.6,9.35,23.84c7.65,11.58,20.23,18.29,31.85,25.2c7.65,4.52,15.24,9.32,21.82,15.33   c6.13,7.2,13.03,13.71,19.01,21.05c17.59,20.97,32.2,45.88,34.97,73.58c3.08,28.04-7.33,55.87-23.21,78.59   c-4.11,5.52-5.33,12.48-6.28,19.13c3.97-2.47,8.02-5.37,12.94-5.2c-2.47,1.57-5.18,2.7-7.63,4.29c-5.76,4.21-8.61,12.16-6.35,19.03   c2.34,8.68,9.99,14.61,17.95,17.96c10.43,4.35,21.56,7.04,32.83,7.98c11.93,1.39,24.02,1.91,35.91-0.17   c-1.24-0.23-2.48-0.47-3.69-0.67c-1.41-0.43-2.79-0.89-4.18-1.33c1.98-0.29,3.97-0.57,5.97-0.86c-1.78-0.29-3.55-0.57-5.32-0.75   c24.16-2.19,47.61-9.62,69.61-19.62c15.44-9.36,29.16-21.23,42.63-33.18c7.07-6.34,14.49-12.37,20.51-19.77   c6.1,5.22,11.53,11.17,17.15,16.89c13.21,13.4,26.57,26.65,39.85,39.98l0.25,0.29c-10.53,12.56-22.94,23.34-35.24,34.1   c-10.64,9.26-21.54,18.21-32.56,27.01c1.13-4.49,4.82-7.61,6.91-11.61c10.37-17.6,15.66-37.81,17.81-58.01   c1.44-10.38,1.61-20.93,0.93-31.37c-1.74,5.64-1.36,11.58-1.94,17.39c-2.34,19.58-5.66,39.43-14.2,57.37   c-3.48,8.09-8.16,15.64-13.41,22.69c-5.14,5.78-10.8,11.08-16.15,16.66c0.58,0.1,1.74,0.31,2.32,0.41   c-15.99,11.1-34.04,19.53-53.29,22.98c-16.75,3.03-34.19,4.01-50.94,0.44c-11.16-2.45-21.92-7.21-30.72-14.56   c5.12,0.84,9.44,4.17,14.65,4.75c9.33,2.23,18.96,0.78,28.1-1.62c8.15-2.61,16.09-6.7,21.77-13.25   c6.82-6.7,11.22-15.35,14.99-24.01c4.12-10.2,8.34-20.36,12.6-30.51c3.64-9.17,10.17-16.72,14.7-25.38   c-6.82,4.65-10.75,12.09-15.42,18.66c-6.73,11.04-11.87,22.95-17.17,34.72c-2.64,6.09-5.96,11.9-9.93,17.23   c-5.88,8.73-15.21,14.86-25.27,17.68c-11.83,4.06-25.13,3.79-36.76-0.83c-4.26-1.5-7.64-4.62-11.63-6.65   c-12.64-13.02-22.64-28.33-31.69-43.98c-4.2-7.12-7.81-14.57-12.3-21.49c-1.45,4.12-3.01,8.3-3.42,12.69   c0.44,5.21,1.91,10.29,3.33,15.31c3.15,16.77,7.85,33.25,13.39,49.38c4.32,11.52,8.94,23.38,17.43,32.53   c8.27,8.53,18.68,14.65,29.41,19.58c18.06,8.13,37.36,13.18,56.78,16.84c26.58,4.83,53.71,7.2,80.73,5.69   c6.7-0.74,13.76-0.74,19.97-3.7c5.08-2.43,7.07-8.39,6.9-13.68c-0.29-11.81-4.6-23.12-4.71-34.95c-0.06-5.63,1.36-11.68,5.52-15.73   c4.66-4.6,11.34-6.25,17.66-6.98c9.95-1.33,19.96,0.03,29.87,0.94c1.34,0.13,2.68,0.28,4.05,0.45c-0.52,2.31-0.88,4.69-0.6,7.08   c0.97,14.73,0.64,29.5,0.72,44.26c-0.08,4.1-0.13,8.23,0.56,12.3c0.72,3.9-0.31,7.85,0.09,11.78c1.12,12.94-0.73,26.02,1.21,38.9   c0.26,2.31-0.34,4.61-0.79,6.87c0.5,0.59,1.01,1.19,1.53,1.81c-0.1,0.17-0.31,0.52-0.42,0.69c-2.79,1.73-5.36,3.82-7.33,6.47   c-10.82,12.13-18.24,27.79-18.96,44.17c-1.87,17.96,2.52,36.05,9.44,52.55c4.79,10.67,11.38,20.36,18.13,29.87   c0.39,0.59,0.78,1.22,1.21,1.86c-1.22,5.15-0.61,10.45-0.66,15.69c0.07,8.01-0.16,16.03,0.02,24.05   c2.33,18.24-0.37,36.74,1.96,54.98c0.17,14-0.2,28.02,0.13,42.02c1.53,10.91,0.66,21.94,0.86,32.92   c0.16,10.67-0.07,21.34,0.1,32.02c1.59,12.57,0.76,25.28,0.9,37.92c0.29,4.14-1.8,9.53,1.83,12.69c-0.9,0.74-1.78,1.5-2.66,2.28   c-5.49,4.26-9.7,9.85-13.86,15.35c-6.55,9.11-10.4,20.48-9.18,31.76c0.8,12.39,7.61,23.06,12.86,33.95   c5.2,11.44,11.21,22.69,13.58,35.17c0.27-1.47,0.51-2.97,0.75-4.4c1.89,4.21-0.95,8.44-1.23,12.72c-3.28,2.58-6.14,5.63-8.55,9.04   c-9.32,12.9-20.62,25-25.52,40.47c-3.07,9.12-2.03,19.55,3.35,27.62c7.74,12.67,22.96,17.7,31.87,29.27   c4.79,6.13,6.2,14.91,2.85,22.04c-3.77,8.5-12.01,14.11-20.65,16.87c-1.37-0.44-2.69-0.79-4.02-1.16c0.32-0.57,0.97-1.71,1.29-2.28   c6.04-2.18,11.74-5.8,15.51-11.08c2.62-3.78,4.14-8.65,2.9-13.19c-1.18-4.57-4.56-8.16-8.21-10.93   c-8.18-6.24-17.78-10.57-25.09-17.93c-6.49-6.26-11.01-14.48-12.68-23.34c3.04,12.38,5.72,25.27,3.16,38.02   c-1.15,6.8-4,13.17-7.48,19.09c-4.23,8.04-6.98,17.9-3.37,26.69c3.14,8.36,10.54,14.13,18.31,17.98c-0.04,0.54-0.11,1.63-0.15,2.17   c-10.54-1.41-20.99-6.26-27.46-14.93c-7-8.98-8.71-20.91-7.64-31.97c0.41-6.73,3.3-13.21,2.44-20.01   c-1.02-9.21-5.91-17.39-11.03-24.88c-10.89-15.41-24.61-28.47-36.76-42.82c0.63,2.72,1.32,5.45,1.63,8.26   c-0.39,1.39-0.77,2.88-1.17,4.33c-0.69-1.09-1.35-2.16-1.99-3.22c-3.65-15.51-12.32-29.56-23.25-41   c-6.42-7.13-12.81-14.29-19.22-21.42c3.57,0.44,6.74,2.18,9.85,3.87c8.33,4.55,17.31,7.76,25.67,12.28   c18.42,8.37,36.76,18.35,50.58,33.46c8.31,8.64,13.99,19.61,16.75,31.25c0.65,2.21,0.72,4.89,2.78,6.38   c-1.68-15.08-8.28-29.42-18.41-40.7c-12.74-14.52-29.81-24.23-46.68-33.17c-10.58-5.6-21.74-10.02-32.1-16.03   c-4.09-2.26-8.47-3.99-12.28-6.73c-1.99-1.49-4.38-2.22-6.81-2.51c-11.41-11.18-24.48-20.47-37.58-29.53   c-0.73-3.89-3.78-6.6-5.9-9.74c-12.03-15.95-18.72-35.94-17.91-55.96c1.11-16.14,5.97-31.91,13.79-46.05   c17.07-33.13,47.84-55.86,68.78-86.19c17.74-25.56,28.36-56.53,27.43-87.82c0.48-10.72-1.26-21.41-4.52-31.59   c-6.18-18.18-15.3-35.52-27.82-50.13c-4.72-6.19-10.31-11.63-15.61-17.31c-5.64-6.03-12.17-11.14-17.87-17.11   c-7.24-7.46-15.03-14.41-21.76-22.34c-6.24-8-12.35-16.31-16.09-25.81c-8.74-19.64-9.51-41.53-16.03-61.83   c-0.74,5.79,0.97,11.49,1.24,17.26c1.72,20.58,4.18,42.08,15.27,60.02c4.76,8.57,11.55,15.7,17.9,23.08   c4.99,5.71,11.27,10.05,16.45,15.57c18.49,16.9,37.9,34.24,48.39,57.52c4.84,11.29,7.27,23.5,8.29,35.7   c3.88,30.15-2.03,61.56-16.91,88.09c-9.66,19.29-24.66,35.07-38.72,51.17c-11.24,12.34-21.5,25.55-30.38,39.69   c-9.08,15.19-15.82,31.91-18.46,49.49c-1.88,17.28,0.06,35.32,7.97,51c1.76,5.15,5.91,9,7.71,14.11   c-13.34-7.86-26.95-15.36-41.1-21.67c10.54,10.62,20.74,21.88,27.83,35.16c5.01,9.49,8.39,20.17,7.79,31   c-0.49,8.84-3.69,17.49-9.03,24.55c-7.04,9.65-17.1,17.06-22.18,28.11c-0.74-1.3-1.48-2.57-2.21-3.82   c4.6-10.59,13.31-18.53,19.28-28.26c4.72-7.58,6.82-16.85,5.28-25.69c-2.14-12.56-9.59-23.44-17.93-32.74   c-18.08-19.76-40.86-34.21-62.48-49.69c-6.91-5.38-15.53-7.62-23.22-11.57c-18.77-8.72-37.02-18.89-53.1-32   c-12.97-10.44-24.31-23.05-32.63-37.51c-0.78-1.28-1.58-2.52-2.43-3.72c3.87,15.18,10.69,29.69,20.31,42.09   c11.72,14.81,28.02,24.77,42.64,36.38c13.51,10.08,27.88,19.11,40.21,30.69c0.09,0.94,0.17,1.9,0.25,2.88   c-0.36,0.13-1.08,0.39-1.44,0.52c-13.89-11.71-30.12-20.05-45.23-29.97c-12.65-8.64-26.16-16.16-37.58-26.47   c-13.14-11.85-22.85-27.14-29.57-43.41c-7-16.98-11.08-35.07-13.02-53.3c-1.6-19.93,3.84-39.63,10.51-58.22   c7.85-21.31,18.13-41.65,29.64-61.19c2.24-4.9,1.82-10.5,2.06-15.74c-12.65,13.78-27.71,24.97-42.15,36.76   c-10.71,8.85-21.3,18.2-29.05,29.86c-6.11,8.99-9.9,19.57-10.66,30.44c-0.69,6.48,0.42,12.95,0.88,19.42   c-4.11-12.83-4.92-26.89-1.21-39.91c3.52-12.92,11.01-24.32,19.48-34.52c13.88-16.69,30.64-30.75,44.18-47.73   c5.62-7.39,11.45-15.13,14.09-24.12c-3.8-17.41-10.28-34.1-15.78-51.01c-6.45-18.93-12.29-38.18-15.12-58.02   c-3.41-24.46-1.73-49.98,7.2-73.15c-4.86,2.56-10.11,4.46-15.61,4.96c-5.34,0.55-11.04,0.38-15.82,3.22   c-7.67,4-11.31,14.49-7.56,22.29c4.12,6.31,8.34,12.61,11.54,19.47c8.7,17.26,10.94,37.24,8.41,56.25   c-2.48,18.04-11.01,34.91-23.08,48.42c-12.48,13.96-28.21,24.7-44.91,32.99c-4.13,2.17-8.99,3.4-12.04,7.19   c-0.19-1.46-0.53-2.93-0.23-4.37c2.9-12.33,7.35-24.33,13.53-35.41c4.6-9.41,11.44-17.48,16.38-26.7c2.45-4.84,5.32-9.45,7.6-14.36   c4.72-11.27,8.04-23.54,6.75-35.85c-1.58-16.59-7.66-32.24-12.73-47.98c-3.51-10.6-6.8-21.28-10.07-31.96   c-4.01-13.33-6.31-27.18-6.87-41.08c-0.48-25.31,6.44-50.47,18.49-72.64c5.77-10.85,12.72-21.04,20.38-30.63   c16.31-22.05,36.33-40.98,56.97-58.9c16.75-14.48,35.02-27.62,48.66-45.3c8.84-11.23,16.35-24.03,19-38.23   c3.75-16.23,0.58-33.46-6.36-48.4c-13.67-31.61-38.52-56.56-53.65-87.35c-2.2-5.79-4.37-12.05-3.1-18.31   c1.65-8.77,8.23-15.92,15.98-19.96c15.23-8.87,32.76-12.23,49.63-16.55c11.08-2.94,22.43-5.2,32.95-9.89   c7.39-2.66,15.27-6.98,18.07-14.81c4.29-11.36,0.82-23.58-1.26-35.02c-1.72-10.61-4.13-21.24-3.79-32.05   c0.34-15.97,6.69-31.79,17.73-43.36c8.84-10.1,20.05-17.69,31.51-24.49c5.82-3.26,10.78-7.91,14.86-13.15   c3.22-5.28,4.33-11.92,2.68-17.92c-2.67-11.22-9.81-20.54-15.33-30.45c-9.27-15.17-18-30.98-22.72-48.24   c-2.55-9.18-4.7-18.77-3.39-28.35c1.59-10.66,7.43-20.27,14.97-27.8c11.25-10.19,24.51-18.05,38.69-23.42   c18.86-8.24,39.08-12.48,59.15-16.55c-8.55-0.72-16.91,1.82-25.22,3.45c-15.71,3.11-30.95,8.21-45.68,14.42   c-8.66,4.39-17.5,8.72-24.95,15.03c-10.62,7.98-18.73,19.69-21.34,32.81c-1.95,9.07-0.4,18.44,1.66,27.36   c4.55,18.56,12.68,36.11,22.77,52.3c5.93,10.07,12.94,19.81,15.82,31.32c1.65,5.8-0.65,12.26-4.9,16.38   c-3.95,3.78-8.33,7.14-13.22,9.63c-8.89,4.78-16.42,11.53-24.16,17.91c-12.73,12.49-22.21,29.09-23.11,47.2   c-1.48,10.68,0.88,21.34,2.6,31.85c2.3,12.16,6.43,24.42,4.45,36.93c-1.43,8.3-9.35,13.28-16.47,16.42   c-27.41,11.33-58.21,13.07-84.33,27.75c-7.55,4.67-14.43,11.82-15.87,20.9c-1.4,10.81,2.81,21.43,8.68,30.3   c6.92,12.19,14.89,23.72,22.63,35.39c9.53,15.43,20.26,30.45,26.24,47.73c4.83,13.59,6.15,28.69,2.25,42.67   c-3.38,13.48-11.31,25.21-20.1,35.74c-12.25,14.17-27.05,25.77-41.66,37.38c-5.28,4.74-10.76,9.26-16.01,14.04   c-8.07,6.54-14.93,14.38-22.39,21.57c-8.59,8.15-16.13,17.32-23.51,26.55c-15.81,19.64-28.66,41.99-35.64,66.32   c-3.34,11.51-5.01,23.45-5.49,35.42c-0.41,24.78,6.3,48.97,14.72,72.06c3.73,11.28,7.58,22.51,11.31,33.8   c3.19,9.71,5.46,19.86,5.1,30.15c0.24,11.08-3.9,21.67-8.67,31.48c-7.02,15.25-17.97,28.39-24.1,44.09   c-5.46,11.06-8.34,23.17-10.33,35.28c-0.57,2.16,0.01,4.24,1.29,6.05c-2.89,18.55,3.29,36.76,5.14,55.07   c0.49,20.3-3.62,41.34-14.99,58.45c-9.92,15.01-25.14,25.92-41.77,32.4c-12.6,4.8-25.91,8.24-39.4,9   c16-4.81,31.76-11.91,44.27-23.2c12.87-11.71,20.31-28.52,22.4-45.63c2.96-23.06-1.96-46.43-10.21-67.93   c-6.98-18.77-9-39.48-4.74-59.11c1.91-9.97,5.56-19.46,8.85-29.02c-8.83,13.59-23.35,22.71-30.56,37.47   c-5.05,9.69-6.01,21.07-3.98,31.71c4.83,27.74,22.01,51.33,28.06,78.7c3.63,16.36-0.78,34.16-11.71,46.88   c-6.43,7.73-14.66,13.75-23.45,18.55c-9.63,5.34-19.24,11.38-30.24,13.41c-16.05,3.19-33.79,2.11-47.85-6.96   c-7.15-4.49-13.61-11.07-15.58-19.52c-2.05-8.65,0.94-17.6,5.51-24.93c7.39-11.79,18.21-21.06,30.03-28.23   c0.05,0.1,0.16,0.3,0.21,0.39c-2.41,1.43-4.83,3.2-5.78,5.98c-1.74,4.76,0.41,9.84,3.13,13.77c5.94,8.32,14.35,15.21,24.34,17.94   c9.62,2.94,21.12,1.81,28.78-5.16c6.43-5.69,8.79-14.63,8.55-22.95c-0.44-13.4-6.42-25.84-13.63-36.87   c-9.27-14.28-20.98-26.95-28.71-42.23c-10.42-19.93-16.65-42.38-15.95-64.97c0.17-8.23,2.23-16.27,4.81-24.04   c3.67-10.6,8.86-20.93,16.92-28.89c-14.54,8.77-24.58,22.77-35.02,35.77c-11.32,14.34-26.66,24.63-39.27,37.7   c-11.03,10.85-19.35,24.98-21.57,40.44c-0.95,7.57-0.18,16.02,4.98,22.04c8.03,9.4,22.96,11.72,33.61,5.58   c6.55-3.79,10.85-10.39,13.88-17.13c3.09-7.09,5.47-14.46,8.85-21.42c-0.47,7.08,1.92,13.92,1.96,20.99   c1.18,12.24-1.86,25.07-9.58,34.8c-9.56,12.57-25.16,19.62-40.76,20.25c-18.51,1.33-38.5-6.35-48.47-22.6   c-9.98-16.68-11.07-37.82-4.97-56.06c5.59-17.2,16.8-31.94,29.69-44.37c-5.65,1.11-11.42,1.97-17.18,1.31   c-1.48-0.3-4.2-0.26-3.55-2.71c9.31,1.05,18.57-1.43,27.02-5.18c2.88-1.24,5.21-3.38,7.57-5.37c8.33-7.08,17.28-13.38,26-19.95   c5.47-5.63,9.64-12.65,11.93-20.16c2.03-6.55,0.33-13.4-1.07-19.88c-3.54-14.64-9.59-28.53-13.1-43.18   c-1.61-6.8-3.37-14.09-0.71-20.87c2.55-7.48,9.59-11.85,15.88-15.93c4.92-3.04,9.37-6.78,13.26-11.05   c-3.04-20.38-1.81-41.65,5.57-61.02c-5.32-8.64-11.89-16.65-15.65-26.16c-3.22-7.87-2.6-17.33,2.34-24.35   c6.04-8.71,15.29-14.55,24.5-19.43c17.25-8.83,36.25-13.31,55-17.68c11.73-2.89,23.96-4.81,34.7-10.65   c7.1-3.83,13.89-10.26,14.49-18.77c0.49-8.01-2.31-16.04-6.45-22.79c-17.86-20.91-29.66-46.87-33.62-74.09   c-2.76-17.69-1.59-35.73,1.59-53.28c-4.96,16.88-5.19,34.71-4.23,52.15c0.75,16.96,6.71,33.09,8.33,49.93   c0.75,12.64-3.45,25.2-10.3,35.72c-8.04,12.43-20.05,22.48-34.2,27.18c0.62-1.27,1.25-2.53,1.87-3.78   c17.36-8.58,30.05-25.87,33.46-44.87c2.7-15.09-4.39-29.33-8.12-43.57c-3.82-14.2-5.97-28.83-6.39-43.52   c-0.88-20.2,1.82-41.2,11.84-59.07c8.34-15,22.04-27.44,38.6-32.53c4.86-5.71,9.98-11.22,15.6-16.19   c6.13-5.28,13.77-8.28,20.24-13.09c0.36,1.3,0.38,2.66-0.66,3.68c-4.84,6.08-10.46,11.55-16.62,16.29c-2.34,1.78-4.6,3.71-6.4,6.05   c8.92-3.38,15.17-11.11,22.18-17.26c11.97-12,20.12-27.54,24.32-43.89c5.81-20.49,5.02-42,4.52-63.06   c-0.9-8.64-0.53-17.34-1.47-25.97c-0.69-7.1-0.11-14.25-0.84-21.34c-1.1-11.6,0.22-23.2,0.68-34.79   c1.42-13.36,4.15-26.99,11.17-38.64c9.18-17.97,25.11-31.08,41.08-42.82c11.22-7.74,22.31-15.68,33.32-23.72   c14.33-10.94,27.62-23.89,36-40.05c3.33-6.7,6.33-13.62,7.98-20.95c4-16.32,9.45-32.46,18.2-46.88c5.2-7.58,10.33-15.48,17.7-21.17   c4.67-3.9,9.97-6.94,15.37-9.71c5-2.57,10.65-3.22,16.03-4.65c-7-0.72-13.77,1.95-20.04,4.74c-12.22,6.02-22.62,15.51-30.11,26.86   c-9.77,14.26-16.33,30.48-20.55,47.19c-5.2,20.51-17.48,39.03-34.03,52.17c-11.31,9.96-24.16,17.97-36.65,26.34   c-11.28,8.3-23.05,16.09-32.84,26.18c-5.33,6.06-10.87,12.04-14.87,19.1c-7.47,12.14-11.79,26.03-13.63,40.11   c-2.6,25.94-1,52.07,0.83,78c0.91,14.22,2.29,28.46,1.61,42.72c-0.05,2.11-0.54,4.18-1.47,6.07c-1.43-6.39-3.44-12.68-6.58-18.45   c-3.57-7.11-9.11-12.91-13.92-19.17c-6.23-7.36-11.29-15.6-15.91-24.04c-2.44,10.34-1.74,21.55,2.86,31.21   c6.2,13.12,15.96,24.51,20.12,38.59c2.13,7.34,2.35,15.27,0.63,22.71c-2.83,10.11-12.38,17.29-22.4,19.34   c-9.04,1.86-18.8,2.15-27.44-1.57c-7.23-3.07-14.56-7.49-18.28-14.69c-4.18-8.56-3.83-19.62,2.25-27.2   c5.78-7.11,16.42-9.38,24.7-5.61c4.6,1.99,8,5.92,10.53,10.15c-2.75-2.9-5.19-6.25-8.82-8.12c-7.41-4.18-17.57-2.54-23.22,3.86   c-5.88,6.55-6.13,16.75-2.13,24.32c3.39,6.42,10.31,9.82,16.84,12.24c7.92,3.05,16.72,1.99,24.71-0.22   c7.07-2.19,13.88-7.7,15.3-15.27c0.76-6.61,0.1-13.53-2.74-19.61c-5.98-13.41-16.65-24.08-22.59-37.53   c-6.74-15.06-6.23-32.71-0.43-47.99c0.82-2.46,2.49-5.01,1.32-7.65c-9.64-33.53-5.15-70.81,11.85-101.24   c14.29-25.81,38.02-46.43,65.98-56.09c10.83-4.08,22.62-4.95,33.25-9.65c7.04-3.02,13.3-7.64,18.66-13.08   c-16.28-0.76-32.57-3.2-48.87-1.43c-20.79,2.19-41.39,7.63-60.02,17.22c-14.13,7.37-27.31,17.85-34.64,32.3   c-0.72-0.14-2.18-0.44-2.91-0.58c4.64-13.08,14.01-23.93,24.68-32.55c12.94-10.29,27.89-17.8,43.35-23.53   c15.52-5.6,31.73-9.6,48.24-10.63c14.03-0.93,28.23-0.12,42.09-2.89c0.9-5.3,1.09-10.69,1.89-16   c3.17-21.39,13.08-41.69,27.84-57.48c21.11-22.85,52.46-35.85,83.57-34.28c12.16,0.73,23.86,4.9,36.06,5.29   c10.79,0.23,22-2.91,30.1-10.29c9.52-8.63,14.31-21.51,14.81-34.17c0.94-20.78,8.54-40.84,20.08-58.02   c-14.59,12.85-19.99,32.25-29.83,48.4c-5.49,8.79-11.5,18.16-21.16,22.8c-11.88,5.68-25.82,4.85-38.27,1.73   c0.03-0.46,0.1-1.37,0.14-1.83c5.69,0.11,11.37,1.09,17.07,0.45c9.58-0.6,19.56-4.17,25.59-11.98c11.17-14.49,15.21-32.71,22.89-49   c5.29-11.77,13.37-22.42,24.04-29.81C519.8-0.6,538.52-6.8,557.46-9.52 M548.27,71.38c-12.71,10.55-23.56,23.89-29.64,39.37   c0.98-0.26,1.78-0.79,2.42-1.59c5.37-6.58,10.37-13.53,16.68-19.28c16.2-15.73,35.7-30.05,58.68-33.08   c9.36-1.11,18.82,1.56,27.07,5.88c7.83,4.99,15.64,10.22,24.41,13.48c9.57,4.56,19.98,7.22,30.52,8.25   c2.53,0.3,5.01-0.47,7.28-1.55c-2.25-1.05-4.75-1.1-7.13-1.51c-16.27-4.12-31.13-12.19-46.74-18.16   c-6.47-2.45-12.72-5.56-19.42-7.33c-8.46-1.97-17.24-2.84-25.89-1.92C572.4,55.94,559.37,62.64,548.27,71.38 M257.74,338.95   c-6.56,3.16-13.17,6.48-18.59,11.42c-8.33,6.14-14.13,15.06-18.67,24.24c-4.39,10.77-7.33,22.3-7.12,34   c0.13,8.06-0.37,16.16,0.74,24.17c3.18,37.81,13.69,74.66,15.79,112.6c1.22,13.24-0.14,26.79-4.1,39.49   c-2.42,5.83-5.19,11.82-10.03,16.06c-5,5.44-11.37,9.25-17.12,13.81c-18.31,13.43-37.54,26.36-51.85,44.24   c-9.79,12.45-16.38,27.73-16.91,43.7c0.45,11.46,0.91,23.3,5.46,34.01c-0.03-4.11-1.6-7.98-1.95-12.05   c-1.93-13.32-1.53-27.21,3.15-39.95c5.06-15.03,16.33-26.75,27.76-37.25c16.16-13.82,34.38-24.91,51.32-37.72   c5.67-4.71,10.54-10.44,13.81-17.08c3.53-7.68,5.63-15.96,6.59-24.34c2.19-23.99-1.76-47.92-5.97-71.46   c-4.99-29.9-12.53-59.7-11.82-90.22c-0.08-10.92,1.97-21.89,6.37-31.92c2.23-6.5,6.95-11.61,10.82-17.14   c2.32-3.36,5.95-5.4,8.87-8.17c6.47-5.76,14.69-8.84,22.34-12.6C263.55,336.88,260.51,337.6,257.74,338.95 M386.47,655.6   c1.24,3.5,3.65,6.39,5.48,9.6c6.32,10.66,12.7,21.39,16.91,33.09c1.86,5.79,4.52,11.33,5.6,17.35c3.47,13.79,3.68,29.84-5.14,41.75   c-6.8,9.11-14.28,17.71-22.66,25.4c-7.72,6.32-14.93,13.29-23.2,18.92c-7.46,6.26-15.7,11.53-23.17,17.79   c-11.32,8.19-22.04,17.18-32.11,26.86c-6.17,6.54-12.18,13.26-17.63,20.43c-10.13,14.44-17.14,30.81-22.7,47.48   c-4.15,10.12-6.49,20.87-9.21,31.44c-4.97,22.92-7.2,46.77-3.56,70.05c0.72-10.02-0.26-20.1,0.73-30.11   c2.93-32.33,12.98-63.67,26.59-93.01c6.03-12.6,14.15-24.15,23.47-34.52c5.72-6.95,12.87-12.5,19.44-18.6   c8.03-5.91,15.32-12.77,23.5-18.49c13.48-10.09,27.04-20.16,39.4-31.62c4.23-4.45,8.73-8.63,12.96-13.07   c7.1-8.47,14.93-16.92,18.27-27.7c3.97-14.03,1.23-28.94-3.72-42.35c-5.1-15.01-13.73-28.44-22.2-41.72   C391.39,661.42,389.52,657.97,386.47,655.6 M410.1,808.27c-5.53,9.47-11.5,18.88-19.74,26.25c-6.92,6.05-12.76,13.28-20.08,18.88   c-5.11,4.9-10,10.04-15.05,15c-4.38,3.99-7.64,9.01-12.03,13c-7.06,8.38-14.25,16.81-19.48,26.5   c-6.28,10.25-10.4,21.64-13.81,33.12c-6.27,23.04-9.45,46.82-11.25,70.6c-0.58,20.02-0.31,40.11,2.44,59.97   c3.22,20.46,9.16,40.42,16.72,59.68c8.57,22.52,18.17,44.77,23.92,68.25c6,23.84,7.08,49.4-0.42,73.04   c-12.03,36.88-39.87,66.03-52.11,102.82c-2.4,7.51-4.79,15.29-4.6,23.25c3.47-7.88,5.46-16.32,8.41-24.39   c6.93-14.97,16.58-28.44,26.59-41.48c4.34-5.99,9.33-11.52,13.21-17.83c3.3-5.37,7.29-10.39,9.69-16.27   c1.91-4.59,4.67-8.78,6.47-13.41c1.62-4.16,2.92-8.42,4.33-12.63c7.18-23.42,6.26-48.51,1.53-72.3   c-2.89-11.74-5.63-23.57-10.19-34.79c-2.96-8.56-6.33-16.97-9.89-25.29c-4.5-8.67-7.63-17.97-12.37-26.52   c-4.37-11.21-9.67-22.2-11.77-34.13c-2.64-10.36-3.38-21.06-4.65-31.64c-0.91-6.07-0.37-12.24-1.26-18.32   c-0.84-23.84,1.29-47.91,7.65-70.95c5.4-20.38,14.76-39.77,27.9-56.29c5.49-6.13,10.76-12.46,16.43-18.43   c7.66-8.03,16.06-15.37,23.08-24c12.72-12.87,22.02-28.58,30.78-44.29c8.3-15.01,17.58-29.53,24.94-45.03   C422.69,779.79,417.93,795.37,410.1,808.27 M616.56,850.65c-5.88,10.51-10.2,21.8-13.7,33.3c-6.37,19.73-8.89,41.11-20.3,58.87   c-9.07,14.87-24.75,24.45-41.07,29.53c4.11,0.04,8.31-0.15,12.25-1.44c7.76-3.45,15.31-7.6,21.6-13.37   c4.94-3.44,8.16-8.61,11.53-13.47c8.69-13.3,11.93-29.06,15.91-44.19c4.14-17.37,9.19-34.64,17.2-50.66   c1.19-3.74,4.05-6.81,4.59-10.74C620.82,841.75,619.01,846.46,616.56,850.65 M414.14,854.42c-11.15,11.51-23.75,21.61-34.06,33.89   c-18.55,18.78-34.87,40.81-42.57,66.38c-2.55,8.71-3.6,17.84-3.17,26.91c-0.14,12.77,3.28,25.26,8.23,36.93   c4.63,12.21,11.48,23.4,18.64,34.27c9.06,14.07,19.75,26.98,29.55,40.51c11.12,15.62,21.46,32.18,27.27,50.57   c4.17,12.49,7.49,25.46,7.64,38.7c0.09,7.36,0.23,14.8-1.36,22.05c-2.61,12.78-6.26,25.39-11.38,37.41   c-4.02,9.08-7.36,18.46-11.88,27.32c-8.15,17.82-16.01,35.9-21,54.9c-6.35,22.08-9.39,45.87-3.81,68.44   c4.73,19.61,15.91,37.04,29.29,51.88c1.23,1.09,2.82,2.46,4.6,1.7c2.33-0.54,4.04-3.61,2.32-5.62c-2.71-3.65-5.79-7.02-8.24-10.86   c-9.5-13.57-12.86-30.14-15.81-46.13c-2.05-12.27-4.2-24.63-3.9-37.12c0.23-10.98,3.21-21.65,6.78-31.95   c10.14-31.78,25.33-61.78,33.88-94.09c6.58-23.98,7.49-49.68,1.33-73.83c-3.95-16.82-11.92-32.38-21.43-46.68   c-11.4-18.49-24.5-35.88-35.16-54.82c-3.12-5.14-4.99-10.89-7.78-16.2c-5.62-12.11-8.66-25.26-10.58-38.42   c-0.43-9.77-0.85-19.74,1.44-29.33c1.97-10.61,5.87-20.79,10.68-30.41c9.1-18.56,22.43-34.61,36.05-49.98   c5.51-5.42,10.76-11.08,16.07-16.68c0.1-0.6,0.22-1.19,0.34-1.76c3.4-0.83,7.49-5.51,4.18-8.59   C418.65,851.61,415.63,852.6,414.14,854.42 M133.33,856.09c-7.83,3.67-16.4,5.28-24.84,6.86c-25.52,4.89-52.45,7.93-75.04,21.79   c-7.35,4.62-15.65,11.29-15.29,20.89c0.8,10.7,7.34,19.68,11.92,29.04c2.02-3.49,3.58-7.23,5.66-10.68   c13.35-23.46,35.66-41.67,61.37-49.89c7.73-2.64,16.1-3.45,23.31-7.49C125.24,863.85,130.01,860.62,133.33,856.09 M18.44,1017.55   c-4.49,3.17-9.55,5.65-13.41,9.63c-3.07,3.28-3.84,8.09-2.92,12.39c3.39,21.74,14.37,41.83,15.14,64.06   c0.39,5.9-1.84,11.44-3.84,16.86c7.82-5.28,14.77-11.92,19.94-19.85c11.06-16.54,13.75-37.88,8.82-56.99   c-1.95-8.02-8.08-13.89-11.7-21.09c-2-3.2-2.91-6.97-5-10.08C22.9,1013.84,20.89,1016,18.44,1017.55z"/>
	<path fill="#59291E" stroke="#59291E" stroke-width="0.5" d="M912.54,29.34c7.56-0.19,14-4.65,21.09-6.68   c-6.21,3.14-12.17,7.13-19.05,8.62c-6.44,1.44-13.1-0.82-18.21-4.75c0.56-1.15,1.13-2.3,1.71-3.45   C902.05,26.59,907.03,29.64,912.54,29.34z"/>
	<path fill="#6D3322" stroke="#6D3322" stroke-width="0.5" d="M772.39,47.24c7.04-1.37,14.23-0.24,21.13,1.38   c11.3,3.83,21.4,10.71,29.88,19.04c21.96,21.39,36.29,49.34,58.86,70.18c7.11,5.85,15.54,10.35,24.56,12.38   c8.21,0.92,16.73,1.01,24.74-1.33c6.14-1.47,11.77-4.48,17.85-6.16c-3.27,3.63-8.06,5.27-12.26,7.55   c-8.71,3.64-18.12,6.19-27.63,5.4c-10.12,0.54-19.24-4.69-27.7-9.56c-5.46-4.84-11.38-9.22-15.95-14.97   c-13.95-17-25.25-35.95-38.12-53.74c-3.44-4.52-7.22-8.76-11.46-12.55c-4.2-4.8-9.95-7.78-15.53-10.65   c-14.14-7.23-31.8-3.77-44.3,5.23c-7.64,4.48-13.7,11.05-19.81,17.34c-7.13,8.7-14.2,17.54-19.55,27.48   c-0.86,1.78-2.1,3.32-3.67,4.51c0.69-7.04,5.38-12.8,8.06-19.17c4.22-6.92,8.77-13.67,14.06-19.83   C745.42,59.14,757.61,49.4,772.39,47.24z"/>
	<path fill="#7A3623" stroke="#7A3623" stroke-width="0.5" d="M548.27,71.38c11.1-8.74,24.13-15.44,38.24-17.44   c8.65-0.92,17.43-0.05,25.89,1.92c6.7,1.77,12.95,4.88,19.42,7.33c15.61,5.97,30.47,14.04,46.74,18.16   c2.38,0.41,4.88,0.46,7.13,1.51c-2.27,1.08-4.75,1.85-7.28,1.55c-10.54-1.03-20.95-3.69-30.52-8.25   c-8.77-3.26-16.58-8.49-24.41-13.48c-8.25-4.32-17.71-6.99-27.07-5.88c-22.98,3.03-42.48,17.35-58.68,33.08   c-6.31,5.75-11.31,12.7-16.68,19.28c-0.64,0.8-1.44,1.33-2.42,1.59C524.71,95.27,535.56,81.93,548.27,71.38z"/>
	<path fill="#522A22" stroke="#522A22" stroke-width="0.5" d="M950.35,68.04c5.23-6.6,15.79-8.94,22.4-3.02   c-2.94-1.05-5.98-2.48-9.17-1.84c-4.5,0.62-8.14,3.8-10.56,7.47C952.12,69.78,951.23,68.91,950.35,68.04z"/>
	<path fill="#6D3322" stroke="#6D3322" stroke-width="0.5" d="M753.73,98.89c10.82-6.25,23.46-10.69,36.1-8.72   c11.23,1.58,22.21,6.71,29.91,15.16c7.49,7.17,13.08,15.99,18.17,24.95c4.31,6.47,7.33,13.7,11.99,19.96   c6.25,10.03,14.21,19.57,25.03,24.84c9.58,4.13,20.26,4.12,30.49,3.43c21.56-2.68,40.89-13.2,60.72-21.28   c10.48-3.82,21.19-7.29,32.33-8.54c5.6-1.15,11.36-1.23,17.02-0.33c7.96,0.6,15.74,2.85,23.04,6.03   c-4.44,0.21-8.66-1.51-13.04-1.85c-10.09-1.78-20.52-1.09-30.38,1.59c-22.06,4.88-41.46,17.11-62.62,24.54   c-10.86,4.18-22.47,6.29-34.07,6.8c-9.55-0.74-19.69-1.38-27.98-6.69c-8.81-4.61-14.82-12.89-19.96-21.13   c-5.61-9.79-10.84-19.8-16.46-29.59c-7.16-11.76-16-23.61-29.15-28.99c-15.51-6.73-33.99-3.99-48.13,4.78   c-10.17,5-18.67,12.61-27.06,20.08c-4.59,4.38-8.97,8.95-13,13.84c-3.83,3.28-5.84,8.35-10.17,11.04c2.01-4.99,5.3-9.38,8.43-13.73   c4.64-5.67,8.8-11.8,14.29-16.71C736.52,110.89,744.4,103.76,753.73,98.89z"/>
	<path fill="#793623" stroke="#793623" stroke-width="0.5" d="M374.42,156.67c6.27-2.79,13.04-5.46,20.04-4.74   c-5.38,1.43-11.03,2.08-16.03,4.65c-5.4,2.77-10.7,5.81-15.37,9.71c-7.37,5.69-12.5,13.59-17.7,21.17   c-8.75,14.42-14.2,30.56-18.2,46.88c-1.65,7.33-4.65,14.25-7.98,20.95c-8.38,16.16-21.67,29.11-36,40.05   c-11.01,8.04-22.1,15.98-33.32,23.72c-15.97,11.74-31.9,24.85-41.08,42.82c-7.02,11.65-9.75,25.28-11.17,38.64   c-0.46,11.59-1.78,23.19-0.68,34.79c0.73,7.09,0.15,14.24,0.84,21.34c0.94,8.63,0.57,17.33,1.47,25.97   c0.5,21.06,1.29,42.57-4.52,63.06c-4.2,16.35-12.35,31.89-24.32,43.89c-7.01,6.15-13.26,13.88-22.18,17.26   c1.8-2.34,4.06-4.27,6.4-6.05c6.16-4.74,11.78-10.21,16.62-16.29c1.04-1.02,1.02-2.38,0.66-3.68c7.2-5.25,12.13-12.97,15.9-20.9   c5.46-11.98,7.03-25.55,4.91-38.5c0.93-1.89,1.42-3.96,1.47-6.07c0.68-14.26-0.7-28.5-1.61-42.72c-1.83-25.93-3.43-52.06-0.83-78   c1.84-14.08,6.16-27.97,13.63-40.11c4-7.06,9.54-13.04,14.87-19.1c9.79-10.09,21.56-17.88,32.84-26.18   c12.49-8.37,25.34-16.38,36.65-26.34c16.55-13.14,28.83-31.66,34.03-52.17c4.22-16.71,10.78-32.93,20.55-47.19   C351.8,172.18,362.2,162.69,374.42,156.67z"/>
	<path fill="#7A3623" stroke="#7A3623" stroke-width="0.5" d="M513.31,173.34c8.31-1.63,16.67-4.17,25.22-3.45   c-20.07,4.07-40.29,8.31-59.15,16.55c-14.18,5.37-27.44,13.23-38.69,23.42c-7.54,7.53-13.38,17.14-14.97,27.8   c-1.31,9.58,0.84,19.17,3.39,28.35c4.72,17.26,13.45,33.07,22.72,48.24c5.52,9.91,12.66,19.23,15.33,30.45   c1.65,6,0.54,12.64-2.68,17.92c-4.08,5.24-9.04,9.89-14.86,13.15c-11.46,6.8-22.67,14.39-31.51,24.49   c-11.04,11.57-17.39,27.39-17.73,43.36c-0.34,10.81,2.07,21.44,3.79,32.05c2.08,11.44,5.55,23.66,1.26,35.02   c-2.8,7.83-10.68,12.15-18.07,14.81c-10.52,4.69-21.87,6.95-32.95,9.89c-16.87,4.32-34.4,7.68-49.63,16.55   c-7.75,4.04-14.33,11.19-15.98,19.96c-1.27,6.26,0.9,12.52,3.1,18.31c15.13,30.79,39.98,55.74,53.65,87.35   c6.94,14.94,10.11,32.17,6.36,48.4c-2.65,14.2-10.16,27-19,38.23c-13.64,17.68-31.91,30.82-48.66,45.3   c-20.64,17.92-40.66,36.85-56.97,58.9c-7.66,9.59-14.61,19.78-20.38,30.63c-12.05,22.17-18.97,47.33-18.49,72.64   c0.56,13.9,2.86,27.75,6.87,41.08c3.27,10.68,6.56,21.36,10.07,31.96c5.07,15.74,11.15,31.39,12.73,47.98   c1.29,12.31-2.03,24.58-6.75,35.85c-2.28,4.91-5.15,9.52-7.6,14.36c-4.94,9.22-11.78,17.29-16.38,26.7   c-6.18,11.08-10.63,23.08-13.53,35.41c-0.3,1.44,0.04,2.91,0.23,4.37c-1.36,2.6-2.45,5.34-3.15,8.2c-1.28-1.81-1.86-3.89-1.29-6.05   c1.99-12.11,4.87-24.22,10.33-35.28c6.13-15.7,17.08-28.84,24.1-44.09c4.77-9.81,8.91-20.4,8.67-31.48   c0.36-10.29-1.91-20.44-5.1-30.15c-3.73-11.29-7.58-22.52-11.31-33.8c-8.42-23.09-15.13-47.28-14.72-72.06   c0.48-11.97,2.15-23.91,5.49-35.42c6.98-24.33,19.83-46.68,35.64-66.32c7.38-9.23,14.92-18.4,23.51-26.55   c7.46-7.19,14.32-15.03,22.39-21.57c5.25-4.78,10.73-9.3,16.01-14.04c14.61-11.61,29.41-23.21,41.66-37.38   c8.79-10.53,16.72-22.26,20.1-35.74c3.9-13.98,2.58-29.08-2.25-42.67c-5.98-17.28-16.71-32.3-26.24-47.73   c-7.74-11.67-15.71-23.2-22.63-35.39c-5.87-8.87-10.08-19.49-8.68-30.3c1.44-9.08,8.32-16.23,15.87-20.9   c26.12-14.68,56.92-16.42,84.33-27.75c7.12-3.14,15.04-8.12,16.47-16.42c1.98-12.51-2.15-24.77-4.45-36.93   c-1.72-10.51-4.08-21.17-2.6-31.85c0.9-18.11,10.38-34.71,23.11-47.2c7.74-6.38,15.27-13.13,24.16-17.91   c4.89-2.49,9.27-5.85,13.22-9.63c4.25-4.12,6.55-10.58,4.9-16.38c-2.88-11.51-9.89-21.25-15.82-31.32   c-10.09-16.19-18.22-33.74-22.77-52.3c-2.06-8.92-3.61-18.29-1.66-27.36c2.61-13.12,10.72-24.83,21.34-32.81   c7.45-6.31,16.29-10.64,24.95-15.03C482.36,181.55,497.6,176.45,513.31,173.34z"/>
	<path fill="#6D3321" stroke="#6D3321" stroke-width="0.5" d="M913.75,236.3c-0.02-1.69,2.12-0.3,2.88,0.12   c8.01,4.82,14.33,11.96,19.14,19.89c10.4,18.27,14.06,39.49,14.9,60.25c1.93,18.95-0.31,38.09,1.67,57.03   c-0.4,13.81,2.43,27.42,4.04,41.09c3.25,19.43,7.39,39.26,17.93,56.22c5.37,8.07,11.51,15.79,19.49,21.43   c14.19,11.28,31.77,16.66,48.76,22.13c20.94,6.26,42.93,11.19,61.18,23.84c7.55,4.96,13.92,11.43,20.49,17.58   c5.39,6.57,12.09,12.05,16.67,19.28c11.83,15.3,20.37,33.11,25.12,51.86c5.74,24.43,3.85,50.06-2.07,74.26   c-1.48,4.96-2.53,10.04-3.93,15.02c-3.19,8.8-5.99,17.74-9.51,26.43c-5.13,11.2-10.08,22.69-12.22,34.9   c-1.49,6.93-1.24,14.33,1.12,21.05c0.86,2.99,2.87,5.65,2.88,8.88c-5.04-6.8-7.14-15.55-6.9-23.91   c-0.37-11.64,3.63-22.82,7.44-33.64c7.27-17.89,12.59-36.53,16.55-55.42c2.1-11.18,3.5-22.53,3.19-33.92   c0.59-14.8-2.17-29.54-6.64-43.59c-4.01-9.93-7.84-20.09-14.1-28.87c-7.77-12.78-17.77-24.02-28.59-34.29   c-12.98-14.1-30.95-22.22-48.69-28.57c-19.9-6.91-40.48-12.53-59.09-22.64c-16.08-8.57-29.47-22.08-37.71-38.35   c-5.24-8.3-7.6-17.95-10.85-27.12c-4.89-18.22-8.13-36.86-10.3-55.6c-0.09-5.66-0.31-11.32-0.95-16.95   c0.02-10.35-0.24-20.71,0.44-31.03c-0.78-7.02-0.5-14.08-0.68-21.12c-1.13-9.73-1.19-19.63-3.6-29.18   c-2.3-8.85-4.39-17.97-9.28-25.84C928.23,248.97,921.23,242.09,913.75,236.3z"/>
	<path fill="#62270F" stroke="#62270F" stroke-width="0.5" d="M864.19,247.52c0.55,0.37,1.66,1.11,2.21,1.47   c0.44,5.77,0.28,11.56,0.13,17.33c0.84-0.48,1.69-0.96,2.56-1.44c-1.95,7.75-6.53,14.61-12.17,20.17   c-3.78,3.59-8.16,7.04-13.52,7.62c6.18-2.34,11.13-6.96,14.76-12.4C864.95,271.01,867.65,258.6,864.19,247.52z"/>
	<path fill="#6D3321" stroke="#6D3321" stroke-width="0.5" d="M1092.59,269.85c1.1-1.39,2.19,0.97,2.81,1.75   c7.9,16.22,18.54,31.07,31.34,43.79c13.15,14.01,29.77,24.75,47.91,31.04c8.87,3.13,16.78,8.29,24.45,13.63   c7.62,6.68,14.85,13.96,20.55,22.39c3.66,6.46,8.12,12.6,10.37,19.75c10.2,25.2,12.01,54.42,1.95,79.96   c-9.64,18.68-23.7,34.55-34.13,52.76c-2.69,5.16-5.52,10.35-6.95,16.04c-1.16,7.56-1.17,16.09,3.81,22.41   c4.06,6.54,10.85,10.45,16.11,15.89c14.87,13.13,28.75,27.65,39.75,44.23c9.93,15.51,16.81,32.88,20.17,51   c2.38,11.89,3.35,24.4-0.12,36.18c-5.75,21.42-19.37,39.34-32.04,57.11c-3.95,5.99-8.97,11.22-12.45,17.53   c-4.39,7.44-9.92,14.44-12.17,22.93c-2.41,7.38-2.78,16.34,2.11,22.83c11.57,16.31,29.77,26.15,47.45,34.58   c17.3,8.68,35.4,15.77,51.93,25.93c8.12,5.28,16.09,11.34,21.59,19.43c1.07,1.29,1.17,2.99,1.36,4.6   c-3.7-6.09-9.09-10.94-14.49-15.47c-7.43-5.19-15.54-9.31-23.61-13.36c-5.55-1.79-10.63-4.62-15.88-7.09   c-8.36-3.3-16.68-6.7-24.87-10.37c-9.8-5.47-20.43-9.48-29.44-16.28c-6.22-4-11.32-9.38-16.32-14.75   c-3.42-4.31-6.89-9.02-7.37-14.69c-2.42-9.74,1.68-19.47,5.9-28.08c4.33-9.83,11.26-18.12,16.98-27.13   c12.74-16.77,25.35-34.06,33.2-53.75c3.88-9.5,4.83-19.91,3.74-30.06c-1.85-12.95-4.58-25.89-9.82-37.94   c-2.87-6.05-5.07-12.45-8.93-17.98c-5.08-8.67-10.97-16.87-17.53-24.48c-2.7-3.62-6.33-6.42-8.91-10.12   c-2.1-2.95-5.69-4.39-7.61-7.49c-2.08-3.23-5.51-5.11-8.21-7.71c-5.36-5.32-11.51-10.21-14.78-17.2   c-3.66-6.82-3.75-15.11-1.37-22.35c1.36-4.19,2.62-8.45,4.72-12.35c5.46-9.08,11.2-18.02,17.47-26.58   c4.24-7.27,9.43-13.93,13.79-21.13c10.32-17.96,11.29-39.7,7.75-59.68c-3.45-18.08-11.12-35.34-22.32-49.93   c-10.87-13.37-25.36-23.72-41.66-29.36c-6.44-2.55-12.67-5.7-18.42-9.55c-7.24-3.77-13.44-9.14-19.29-14.74   c-3.98-2.71-6.36-6.99-9.95-10.1c-10.72-11.45-19.2-24.81-26.05-38.89C1094.13,274.71,1092.14,272.47,1092.59,269.85z"/>
	<path fill="#522A22" stroke="#522A22" stroke-width="0.5" d="M127.92,329.03c-0.66-8.37,0-16.94,2.89-24.87   c0.73,0.14,2.19,0.44,2.91,0.58C129.85,312.27,128.66,320.71,127.92,329.03z"/>
	<path fill="#793623" stroke="#793623" stroke-width="0.5" d="M257.74,338.95c2.77-1.35,5.81-2.07,8.89-2.16   c-7.65,3.76-15.87,6.84-22.34,12.6c-2.92,2.77-6.55,4.81-8.87,8.17c-3.87,5.53-8.59,10.64-10.82,17.14   c-4.4,10.03-6.45,21-6.37,31.92c-0.71,30.52,6.83,60.32,11.82,90.22c4.21,23.54,8.16,47.47,5.97,71.46   c-0.96,8.38-3.06,16.66-6.59,24.34c-3.27,6.64-8.14,12.37-13.81,17.08c-16.94,12.81-35.16,23.9-51.32,37.72   c-11.43,10.5-22.7,22.22-27.76,37.25c-4.68,12.74-5.08,26.63-3.15,39.95c0.35,4.07,1.92,7.94,1.95,12.05   c-4.55-10.71-5.01-22.55-5.46-34.01c0.53-15.97,7.12-31.25,16.91-43.7c14.31-17.88,33.54-30.81,51.85-44.24   c5.75-4.56,12.12-8.37,17.12-13.81c4.84-4.24,7.61-10.23,10.03-16.06c3.96-12.7,5.32-26.25,4.1-39.49   c-2.1-37.94-12.61-74.79-15.79-112.6c-1.11-8.01-0.61-16.11-0.74-24.17c-0.21-11.7,2.73-23.23,7.12-34   c4.54-9.18,10.34-18.1,18.67-24.24C244.57,345.43,251.18,342.11,257.74,338.95z"/>
	<path fill="#D28C37" stroke="#D28C37" stroke-width="0.5" d="M890.24,394.75c-5.75-8.49-6.7-19.42-4.26-29.19   c1.7,11.02,4.11,22.1,9.32,32.07c1.7,3.84,4.49,7.1,5.91,11.07C896.59,404.93,893.58,399.6,890.24,394.75z"/>
	<path fill="#70280D" stroke="#70280D" stroke-width="0.5" d="M564.43,449.47c6.14-0.65,11.67-3.74,16.07-7.97   c-5.12,7.38-14.57,9.92-23.09,10.29c-12.39,0.33-24.89-2.91-35.56-9.2c3.15,0.39,6.32,2.08,9.52,0.97   C541.69,448.08,553.11,451.07,564.43,449.47z"/>
	<path fill="#6D3321" stroke="#6D3321" stroke-width="0.5" d="M960.13,458.55c-0.21,2.28-1.68,4.11-2.7,6.07   c-4.42,8.76-7.01,19.17-3.62,28.73c2.01,6.84,7.35,11.89,12.39,16.63c6.8,6.19,15.12,10.23,23.06,14.73   c18.41,9.22,37.84,16.1,56.61,24.52c10.52,4.03,20.47,9.34,30.53,14.37c12.32,6.83,24.24,14.82,33.88,25.19   c6.09,6.83,11.31,14.74,13.46,23.73c3,10.12,1.94,20.95-0.45,31.08c-8.36,35.14-23.3,68.76-26.8,104.99   c-0.11,4.7-0.26,9.41-0.67,14.11c0.6,11.04,1.76,22.29,5.98,32.63c1.68,6.14,4.88,11.67,7.55,17.42   c5.69,9.06,11.5,18.23,19.34,25.62c13.66,14.15,30.03,25.59,47.54,34.45c17.55,9.23,36.06,16.57,55.15,21.95   c19.24,6.79,38.1,14.85,55.72,25.21c18.38,10.21,35.89,22.29,50.62,37.39c4.61,4.14,8.34,9.12,11.78,14.26   c3.86,5.89,7.57,12.86,6.71,20.12c-1.49-4.4-2.16-9.14-4.77-13.07c-5.32-8.7-12.02-16.65-20.14-22.85   c-12.04-10.73-25.74-19.33-39.58-27.49c-10.36-5.37-20.7-10.77-31.33-15.56c-14.6-5.95-29.34-11.7-44.64-15.63   c-17.51-6.25-35.04-12.97-50.94-22.76c-8.38-4.72-16.6-9.88-23.78-16.31c-7.41-5.14-13.64-11.75-19.69-18.39   c-21.32-23.18-32.94-55.55-29.18-87.03c2.43-21.07,8.18-41.58,14.9-61.64c5.33-18.14,11.82-36.02,15.02-54.71   c1.51-10.39,0.23-21.32-4.68-30.68c-2.27-3.67-4.91-7.09-7.41-10.6c-7.59-9.27-17.81-15.86-28.05-21.85   c-6.18-4.22-13.29-6.68-19.81-10.28c-23.21-11.17-47.55-19.86-70.55-31.5c-7.17-4.05-14.74-7.49-21.14-12.76   c-8.84-6.16-17.04-14.36-19.79-25.1c-2.35-7.28-0.78-15.06,1.71-22.07C954.11,466.74,956.45,462.09,960.13,458.55z"/>
	<path fill="#E4A24F" stroke="#E4A24F" stroke-width="0.5" d="M552.35,508.98c6.35-1.09,12.87-1.07,19.22,0.04   c-2.74,0.3-5.49,0.58-8.23,0.72c-0.68,0.01-2.04,0.01-2.72,0.01C557.85,509.59,555.1,509.29,552.35,508.98z"/>
	<path fill="#060709" stroke="#060709" stroke-width="0.5" d="M560.62,509.75c0.68,0,2.04,0,2.72-0.01   c23.51,0.14,46.82,8.9,64.63,24.23c16.95,14.46,29,34.65,33.33,56.53l0.3,1.08l0.3,0.95c14.83,0.77,29.71,0.03,44.56,0.22   c1.71-0.05,3.61,0.09,5.06-1.04c6.43-31.49,29.01-59.04,58.54-71.68c22.31-9.79,48.19-11,71.37-3.59   c31.25,9.77,56.77,35.77,66.02,67.16c6.93,23.01,5.39,48.47-4.43,70.42c-12.55,28.54-39.02,50.55-69.48,57.39   c-23.16,5.47-48.23,2.4-69.36-8.55c-15.05-7.74-28.12-19.3-37.56-33.35c-9.84-14.41-15.66-31.46-17.04-48.84   c-15.53,0.02-31.1-0.5-46.6,0.24l-0.03,0.14c-1.74,16-7.03,31.65-15.92,45.1c-11.58,17.81-28.88,31.86-48.76,39.37   c-24.52,9.41-52.71,8.75-76.74-1.86c-24.72-10.74-44.73-31.81-54.11-57.09c-12.41-32.34-6.62-70.9,15-98   C500.86,524.71,530.43,509.92,560.62,509.75 M553.94,524.43c-22.07,1.59-43.25,12.35-57.67,29.1   c-10.54,12.06-17.5,27.18-19.88,43.02c-2.54,16.54-0.1,33.8,6.95,48.97c10.8,23.52,32.87,41.44,58.14,47.09   c22.68,5.36,47.45,0.83,66.77-12.21c18.11-12.07,31.31-31.31,35.84-52.62c5.53-24.91-0.72-52.17-16.95-71.93   C609.9,534.14,581.56,521.96,553.94,524.43 M796.82,529.17c-17.79,2.92-34.57,11.7-47.04,24.73   c-15.74,15.91-24.53,38.34-24.09,60.69c0.19,20.71,8.32,41.18,22.36,56.39c12.83,14.08,30.53,23.68,49.37,26.59   c21.25,3.48,43.74-1.44,61.52-13.61c14.51-9.89,25.97-24.29,32.02-40.8c7.89-21.03,6.99-45.19-2.43-65.57   c-7.5-16.35-20.33-30.16-36.05-38.88C835.72,529.28,815.74,526.09,796.82,529.17z"/>
	<path fill="#FDD05D" stroke="#FDD05D" stroke-width="0.5" d="M553.94,524.43c27.62-2.47,55.96,9.71,73.2,31.42   c16.23,19.76,22.48,47.02,16.95,71.93c-4.53,21.31-17.73,40.55-35.84,52.62c-19.32,13.04-44.09,17.57-66.77,12.21   c-25.27-5.65-47.34-23.57-58.14-47.09c-7.05-15.17-9.49-32.43-6.95-48.97c2.38-15.84,9.34-30.96,19.88-43.02   C510.69,536.78,531.87,526.02,553.94,524.43z"/>
	<path fill="#D7B259" stroke="#D7B259" stroke-width="0.5" d="M796.82,529.17c18.92-3.08,38.9,0.11,55.66,9.54   c15.72,8.72,28.55,22.53,36.05,38.88c9.42,20.38,10.32,44.54,2.43,65.57c-6.05,16.51-17.51,30.91-32.02,40.8   c-17.78,12.17-40.27,17.09-61.52,13.61c-18.84-2.91-36.54-12.51-49.37-26.59c-14.04-15.21-22.17-35.68-22.36-56.39   c-0.44-22.35,8.35-44.78,24.09-60.69C762.25,540.87,779.03,532.09,796.82,529.17z"/>
	<path fill="#935E51" stroke="#935E51" stroke-width="0.5" d="M1205.76,575.78c1.2-0.86,1.98-0.65,2.33,0.65   C1206.84,577.27,1206.07,577.06,1205.76,575.78z"/>
	<path fill="#210100" stroke="#210100" stroke-width="0.5" d="M661.6,591.58c16.64,0.22,33.29-0.18,49.92,0.13   c-1.45,1.13-3.35,0.99-5.06,1.04c-14.85-0.19-29.73,0.55-44.56-0.22L661.6,591.58z"/>
	<path fill="#793623" stroke="#793623" stroke-width="0.5" d="M386.47,655.6c3.05,2.37,4.92,5.82,7.05,8.97   c8.47,13.28,17.1,26.71,22.2,41.72c4.95,13.41,7.69,28.32,3.72,42.35c-3.34,10.78-11.17,19.23-18.27,27.7   c-4.23,4.44-8.73,8.62-12.96,13.07c-12.36,11.46-25.92,21.53-39.4,31.62c-8.18,5.72-15.47,12.58-23.5,18.49   c-6.57,6.1-13.72,11.65-19.44,18.6c-9.32,10.37-17.44,21.92-23.47,34.52c-13.61,29.34-23.66,60.68-26.59,93.01   c-0.99,10.01-0.01,20.09-0.73,30.11c-3.64-23.28-1.41-47.13,3.56-70.05c2.72-10.57,5.06-21.32,9.21-31.44   c5.56-16.67,12.57-33.04,22.7-47.48c5.45-7.17,11.46-13.89,17.63-20.43c10.07-9.68,20.79-18.67,32.11-26.86   c7.47-6.26,15.71-11.53,23.17-17.79c8.27-5.63,15.48-12.6,23.2-18.92c8.38-7.69,15.86-16.29,22.66-25.4   c8.82-11.91,8.61-27.96,5.14-41.75c-1.08-6.02-3.74-11.56-5.6-17.35c-4.21-11.7-10.59-22.43-16.91-33.09   C390.12,661.99,387.71,659.1,386.47,655.6z"/>
	<path fill="#FFFFFF" stroke="#FFFFFF" stroke-width="0.5" d="M105.2,672.45c-3.18,17.55-4.35,35.59-1.59,53.28   c-0.66-0.28-1.98-0.85-2.64-1.13C100.01,707.16,100.24,689.33,105.2,672.45z"/>
	<path fill="#6E3321" stroke="#6E3321" stroke-width="0.5" d="M1012.52,684.78c2.82-3.02,4.36-7.27,8.09-9.37   c-1.84,4.63-5.14,8.43-7.87,12.54c-11.59,16.76-21.85,34.51-29.72,53.32c-1.98,6.25-4.36,12.38-6.02,18.73   c-2.04,10.06-3.93,20.3-3.51,30.62c0.77,9.21,1.49,18.56,4.56,27.36c6.3,20.37,16.09,39.5,27.58,57.4   c8.03,10.86,16.28,21.66,26.08,31.01c8.07,7.98,17.11,14.91,26.13,21.79c14.72,10.51,30.66,19.17,46.9,27.08   c28.21,12.8,58.17,20.99,87.09,31.94c17.43,6.46,34.28,14.45,50.44,23.64c11.32,7.39,22.61,15.11,31.95,25   c19.87,19.29,34.67,43.37,44.68,69.1c0.89,2.57,2.28,4.97,4.36,6.8l0.64,0.67c-0.6-0.13-1.79-0.37-2.39-0.5   c8.71,24.17,12.92,50.16,10.31,75.81c-2.04,17.06-6.24,34.24-15.24,49.05c-2.18,3.43-3.88,7.31-7.07,9.96   c1.68-4.68,4.91-8.56,6.9-13.08c3.16-7.22,6-14.61,7.72-22.32c4.87-18.13,4.51-37.16,2.34-55.66c-0.85-8.67-3.09-17.11-5.52-25.44   c-2.34-9.93-6.6-19.23-10.32-28.68c-2.38-6.36-6.31-11.95-9.09-18.11c-13.55-24.01-31.94-45.45-54.44-61.48   c-8.77-6.64-18.76-11.36-28.32-16.69c-6.81-3.9-14.24-6.5-21.44-9.54c-12.19-5.45-24.75-10.02-37.27-14.66   c-7.86-2.64-15.27-6.46-23.21-8.86c-11.76-4.64-23.45-9.47-34.65-15.36c-34.17-16.72-66.4-38.65-91.14-67.82   c-6.35-6.53-11.27-14.22-16.29-21.76c-4.11-6.98-8.81-13.66-11.79-21.22c-3.45-7.39-6.48-14.96-9.32-22.6   c-4.08-11.5-5.52-23.72-5.97-35.84c0.74-8.74,1.2-17.6,3.7-26.06c5.24-21.34,15.93-40.84,28.13-58.93   C1003.93,696.71,1007.6,690.28,1012.52,684.78z"/>
	<path fill="#D68B30" stroke="#D68B30" stroke-width="0.5" d="M912.33,734.57c6.97-14.84,19.87-26.01,34.07-33.73   c-2.97,5.55-6.52,10.78-9.18,16.51c-8.21,16.74-12.97,35.51-11.53,54.23c0.55,4.4-0.95,8.67-1.3,13.02   c-1.14,12.04,0.7,24.23,4.54,35.66c3.7,10.35,9.09,20.01,12.84,30.35c2.57,6.72,4.55,13.93,3.35,21.18   c-0.49-8.53-4.62-17.12-12.69-20.81c2.31,2.87,5.41,5.21,6.69,8.81c4.04,9.31-0.13,20.56-7.82,26.63c-5.13,4.1-12,5.08-18.37,4.63   c3.64-10.05,6.42-20.61,5.8-31.38c-1.2-22.73-11.86-43.52-14.96-65.91C900.94,773.76,903.92,752.95,912.33,734.57z"/>
	<path fill="#7A3623" stroke="#7A3623" stroke-width="0.5" d="M410.1,808.27c7.83-12.9,12.59-28.48,25.39-37.63   c-7.36,15.5-16.64,30.02-24.94,45.03c-8.76,15.71-18.06,31.42-30.78,44.29c-7.02,8.63-15.42,15.97-23.08,24   c-5.67,5.97-10.94,12.3-16.43,18.43c-13.14,16.52-22.5,35.91-27.9,56.29c-6.36,23.04-8.49,47.11-7.65,70.95   c0.89,6.08,0.35,12.25,1.26,18.32c1.27,10.58,2.01,21.28,4.65,31.64c2.1,11.93,7.4,22.92,11.77,34.13   c4.74,8.55,7.87,17.85,12.37,26.52c3.56,8.32,6.93,16.73,9.89,25.29c4.56,11.22,7.3,23.05,10.19,34.79   c4.73,23.79,5.65,48.88-1.53,72.3c-1.41,4.21-2.71,8.47-4.33,12.63c-1.8,4.63-4.56,8.82-6.47,13.41c-2.4,5.88-6.39,10.9-9.69,16.27   c-3.88,6.31-8.87,11.84-13.21,17.83c-10.01,13.04-19.66,26.51-26.59,41.48c-2.95,8.07-4.94,16.51-8.41,24.39   c-0.19-7.96,2.2-15.74,4.6-23.25c12.24-36.79,40.08-65.94,52.11-102.82c7.5-23.64,6.42-49.2,0.42-73.04   c-5.75-23.48-15.35-45.73-23.92-68.25c-7.56-19.26-13.5-39.22-16.72-59.68c-2.75-19.86-3.02-39.95-2.44-59.97   c1.8-23.78,4.98-47.56,11.25-70.6c3.41-11.48,7.53-22.87,13.81-33.12c5.23-9.69,12.42-18.12,19.48-26.5   c4.39-3.99,7.65-9.01,12.03-13c5.05-4.96,9.94-10.1,15.05-15c7.32-5.6,13.16-12.83,20.08-18.88   C398.6,827.15,404.57,817.74,410.1,808.27z"/>
	<path fill="#060709" stroke="#060709" stroke-width="0.5" d="M636.54,811.67c20.45,11.64,40.64,23.73,60.92,35.66   c0.74,0.45,1.49,0.92,2.25,1.4c20.72-12.12,41.06-24.89,61.76-37.07c-1.67,1.9-3.4,3.74-5.26,5.44   c-19.5,18.47-37.99,37.98-57.19,56.76c-13.28-13.33-26.64-26.58-39.85-39.98c-5.62-5.72-11.05-11.67-17.15-16.89   C640.05,815.36,638.24,813.56,636.54,811.67z"/>
	<path fill="#522A22" stroke="#522A22" stroke-width="0.5" d="M37.27,844.51c9.82-3.56,20-6.22,29.4-10.86   c-0.62,1.25-1.25,2.51-1.87,3.78C55.8,840.37,46.55,842.62,37.27,844.51z"/>
	<path fill="#562924" stroke="#562924" stroke-width="0.5" d="M1317.16,849.36c6.71-3.62,11.87-9.42,16.2-15.58   c-8.21,17.13-28.75,27.46-47.33,22.44c1.4-0.31,2.83-0.62,4.27-0.93c-0.98-0.5-1.94-0.99-2.88-1.46c0.55-0.09,1.63-0.28,2.18-0.37   C1298.9,855.49,1308.89,854.15,1317.16,849.36z"/>
	<path fill="#793624" stroke="#793624" stroke-width="0.5" d="M655.18,851.66c0.58-5.81,0.2-11.75,1.94-17.39   c0.68,10.44,0.51,20.99-0.93,31.37c-2.15,20.2-7.44,40.41-17.81,58.01c-2.09,4-5.78,7.12-6.91,11.61   c-5.72,4.74-11.55,9.38-17.73,13.53c-0.58-0.1-1.74-0.31-2.32-0.41c5.35-5.58,11.01-10.88,16.15-16.66   c5.25-7.05,9.93-14.6,13.41-22.69C649.52,891.09,652.84,871.24,655.18,851.66z"/>
	<path fill="#793624" stroke="#793624" stroke-width="0.5" d="M616.56,850.65c2.45-4.19,4.26-8.9,8.01-12.17   c-0.54,3.93-3.4,7-4.59,10.74c-8.01,16.02-13.06,33.29-17.2,50.66c-3.98,15.13-7.22,30.89-15.91,44.19   c-3.37,4.86-6.59,10.03-11.53,13.47c-6.29,5.77-13.84,9.92-21.6,13.37c-3.94,1.29-8.14,1.48-12.25,1.44   c16.32-5.08,32-14.66,41.07-29.53c11.41-17.76,13.93-39.14,20.3-58.87C606.36,872.45,610.68,861.16,616.56,850.65z"/>
	<path fill="#7A3623" stroke="#7A3623" stroke-width="0.5" d="M414.14,854.42c1.49-1.82,4.51-2.81,6.16-0.61   c3.31,3.08-0.78,7.76-4.18,8.59c-0.12,0.57-0.24,1.16-0.34,1.76c-5.31,5.6-10.56,11.26-16.07,16.68   c-13.62,15.37-26.95,31.42-36.05,49.98c-4.81,9.62-8.71,19.8-10.68,30.41c-2.29,9.59-1.87,19.56-1.44,29.33   c1.92,13.16,4.96,26.31,10.58,38.42c2.79,5.31,4.66,11.06,7.78,16.2c10.66,18.94,23.76,36.33,35.16,54.82   c9.51,14.3,17.48,29.86,21.43,46.68c6.16,24.15,5.25,49.85-1.33,73.83c-8.55,32.31-23.74,62.31-33.88,94.09   c-3.57,10.3-6.55,20.97-6.78,31.95c-0.3,12.49,1.85,24.85,3.9,37.12c2.95,15.99,6.31,32.56,15.81,46.13   c2.45,3.84,5.53,7.21,8.24,10.86c1.72,2.01,0.01,5.08-2.32,5.62c-1.78,0.76-3.37-0.61-4.6-1.7   c-13.38-14.84-24.56-32.27-29.29-51.88c-5.58-22.57-2.54-46.36,3.81-68.44c4.99-19,12.85-37.08,21-54.9   c4.52-8.86,7.86-18.24,11.88-27.32c5.12-12.02,8.77-24.63,11.38-37.41c1.59-7.25,1.45-14.69,1.36-22.05   c-0.15-13.24-3.47-26.21-7.64-38.7c-5.81-18.39-16.15-34.95-27.27-50.57c-9.8-13.53-20.49-26.44-29.55-40.51   c-7.16-10.87-14.01-22.06-18.64-34.27c-4.95-11.67-8.37-24.16-8.23-36.93c-0.43-9.07,0.62-18.2,3.17-26.91   c7.7-25.57,24.02-47.6,42.57-66.38C390.39,876.03,402.99,865.93,414.14,854.42z"/>
	<path fill="#522A22" stroke="#522A22" stroke-width="0.5" d="M1285.86,859.01c3.3,6.39,7.94,12.28,14.25,15.93   c8.44,5.27,18.93,5.73,28.52,4.16c-6.55,1.93-13.59,1.86-20.24,0.57c-10.29-2.13-18.95-9.4-24.02-18.44   C1284.74,860.67,1285.49,859.56,1285.86,859.01z"/>
	<path fill="#793623" stroke="#793623" stroke-width="0.5" d="M570.18,886.29c4.67-6.57,8.6-14.01,15.42-18.66   c-4.53,8.66-11.06,16.21-14.7,25.38c-4.26,10.15-8.48,20.31-12.6,30.51c-3.77,8.66-8.17,17.31-14.99,24.01   c-5.68,6.55-13.62,10.64-21.77,13.25c-9.14,2.4-18.77,3.85-28.1,1.62c-5.21-0.58-9.53-3.91-14.65-4.75   c-3.54-2.63-6.43-5.97-9.37-9.21c3.99,2.03,7.37,5.15,11.63,6.65c11.63,4.62,24.93,4.89,36.76,0.83   c10.06-2.82,19.39-8.95,25.27-17.68c3.97-5.33,7.29-11.14,9.93-17.23C558.31,909.24,563.45,897.33,570.18,886.29z"/>
	<path fill="#D68B30" stroke="#D68B30" stroke-width="0.5" d="M700.79,876.08c5.55,6.49,11.88,12.26,18.15,18.05   c15.6,14.16,31.91,27.52,48.31,40.76c12.52,10.21,25.83,19.72,40.65,26.33c19.18,8.79,40.53,12.36,61.55,11.9   c17.85-0.31,35.99-5.5,49.95-16.95c5.68,6.57,12.4,12.13,19.77,16.7c-10.32,7.08-21.07,13.61-30.66,21.69   c-6.31,5.32-13.46,9.55-20.78,13.31c-16.09,8.09-33.1,14.19-50.33,19.37c-19.89,5.69-40.19,10.61-60.9,11.92   c-6.31,0.1-13.27,0.72-18.9-2.69c-2.69-1.53-2.18-5.21-0.59-7.35c3.36-4.91,7.33-9.39,10.41-14.5c4.27-6.91,8.42-14.64,7.93-23.02   c-0.33-5.84-4-10.96-8.74-14.15c-7.8-5.43-17.13-7.98-26.24-10.17c-12.52-2.92-25.28-4.52-38.03-5.94   c-1.37-0.17-2.71-0.32-4.05-0.45c0.78-0.12,2.33-0.35,3.1-0.47c0.23-14.6-0.28-29.2-0.25-43.79   C701.32,903.11,699.28,889.56,700.79,876.08z"/>
	<path fill="#6F2A08" stroke="#6F2A08" stroke-width="0.5" d="M481.02,890.36c-7.18-1.8-14.44-5.24-18.68-11.56   c3.01,2.8,6.17,5.58,10.08,7.07c11.62,4.74,24.53,4.72,36.85,3.69c1.77,0.18,3.54,0.46,5.32,0.75c-2,0.29-3.99,0.57-5.97,0.86   c1.39,0.44,2.77,0.9,4.18,1.33C502.18,892.75,491.37,893.23,481.02,890.36z"/>
	<path fill="#D68B30" stroke="#D68B30" stroke-width="0.5" d="M1040.83,584.28c-3.53-7.26-10.64-11.8-17.64-15.26   c-14.34-6.88-30.1-10.08-44.63-16.52c-13.75-6.21-25.96-16.52-33.1-29.94c-5.61-10.7-8.14-22.85-8.19-34.88   c0.53-6.9,3.09-13.46,3.87-20.34c1.22-8.81,1.87-18.86-3.64-26.46c0.49,10.08-0.22,20.33-3.82,29.84   c-3.04,9.82-9.14,18.61-10.41,28.96c-0.86,5.73,0.45,11.73,3.58,16.6c6.43,10.31,16.72,17.71,22.23,28.66   c3.11,5.83,4.33,13.01,1.85,19.29c-1.63,3.9-3.75,7.78-7.2,10.37c3.37-6.4,8.03-13.35,5.63-20.94   c-5.22-17.15-24.37-24.6-31.09-40.86c-3.68-9.39-2.18-19.97,1.2-29.22c3.99-10.84,8.14-22.11,7.4-33.86   c-0.66-8.03-2.86-16.24-7.7-22.78c-3.7-3.65-7.53-7.22-11.66-10.38c2.77,5.74,7.25,10.52,9.39,16.6   c2.85,6.82,2.98,14.83-0.26,21.54c-4.81,10.34-15.05,16.78-20.25,26.85c-2.21,4.12-2.03,8.89-2.47,13.41   c-1.27-5.67-0.87-11.79,2-16.93c4.72-9.65,13.87-16.72,16.86-27.28c1.87-6.36-0.46-13.07-4.03-18.37   c-10.12-15.03-26.55-25.37-33.75-42.43c-7.41-19.11-1.77-40.88,9.55-57.24c2.96-3.54,3.15-8.27,4.37-12.51   c2.14-7.83,5.88-15.12,10.28-21.9c4.26-6.9,8.18-14.38,9.03-22.57c1.14-14.4-4.92-29.53-16.67-38.22   c-10.05-7.61-23.31-8.47-33.92-15.04c-10.11-5.63-17.77-14.7-23.42-24.64c-3.97-7.51-10.91-13.11-18.64-16.4   c-3.14,3.36-6.93,6.05-10.03,9.43c-0.71,5.1-1.02,10.45,0.19,15.5c1.43,4.75,6.5,6.68,10.8,7.99c12.88,3.63,26.3,6.36,37.93,13.29   c6.29,3.89,12.08,9.34,14.51,16.5c2.4,6.67,1.93,14,0.11,20.74c-1.95,7.75-6.53,14.61-12.17,20.17c-3.78,3.59-8.16,7.04-13.52,7.62   c6.18-2.34,11.13-6.96,14.76-12.4c6.79-9.26,9.49-21.67,6.03-32.75c-3.56-7.57-10.86-12.38-18.55-15.05   c-10.98-4.02-22.73-4.92-34.1-7.32c-6.88-1.49-13.78-5.13-17.27-11.48c-2.41-3.99-3.06-8.66-3.75-13.18   c-22.55,11.71-47.79,17.53-73.08,18.7c-9.02,1.52-18.03,3.11-27.18,3.59c-0.78,0.83-2.32,1.36-2.07,2.76   c-0.25,6.7,0.25,13.4,0.16,20.11c-0.18,6.34,0.92,12.64,0.75,18.98c0.05,27.68,0.73,55.36,0.76,83.05   c1.25,16.93,0.64,33.94,1.08,50.9c0.88,13.01,0.26,26.07,1.19,39.07c-0.07,20.34,1.16,40.63,1.1,60.96   c0.04,30.63,1.54,61.25,1.18,91.87c-11.04,0.39-22.08,0.19-33.11,0.02l0.3,1.08c16.64,0.22,33.29-0.18,49.92,0.13   c6.43-31.49,29.01-59.04,58.54-71.68c22.31-9.79,48.19-11,71.37-3.59c31.25,9.77,56.77,35.77,66.02,67.16   c6.93,23.01,5.39,48.47-4.43,70.42c-12.55,28.54-39.02,50.55-69.48,57.39c-23.16,5.47-48.23,2.4-69.36-8.55   c-15.05-7.74-28.12-19.3-37.56-33.35c-9.84-14.41-15.66-31.46-17.04-48.84c-15.53,0.02-31.1-0.5-46.6,0.24   c10.74,1.08,21.57-0.3,32.33,0.61c-0.03,11.36,1.01,22.68,0.82,34.05c0.05,9.67,0.2,19.35,0.4,29.03   c0.9,9.31,0.44,18.67,0.63,28.02c0.34,22.34,0.65,44.69,0.71,67.04c1.25,16.62,0.62,33.3,1.09,49.95   c0.17,4.68,0.84,9.36,0.54,14.06c0.1,1.57-0.71,2.86-2.04,3.66c0.74,0.45,1.49,0.92,2.25,1.4c20.72-12.12,41.06-24.89,61.76-37.07   c-1.67,1.9-3.4,3.74-5.26,5.44c11.7,11.57,24.26,22.24,36.77,32.91c15.96,13.15,33.49,24.69,52.78,32.35   c11.39,4.17,23.54,7.58,35.78,6.26c4.83-0.44,9.09-2.9,13.3-5.1c-3.72,4.75-9.72,6.73-15.45,7.73c9.09,2.16,18.57,2.2,27.85,1.48   c3.81-11.58,5.68-24.11,3.03-36.15c-3.89-17.33-12.58-33.03-17.99-49.85c-7.81-22.99-8.53-48.29-2.37-71.75   c3.74-15.41,11.91-29.59,22.87-40.99c14.47-15.06,32.9-25.53,51.79-34.05c4.81-1.95,9.59-3.99,14.35-6.08   c9.69-3.77,20.07-6.14,28.84-11.94c6.96-4.13,13.83-8.56,19.67-14.22c6.17-6,10.34-13.76,13.31-21.77   C1043.26,599.05,1044.19,591.03,1040.83,584.28z M897.11,880.71c0.289,1.199-0.073,1.762-1.093,1.69   C897.037,882.472,897.398,881.909,897.11,880.71c-0.175-0.039-0.336-0.064-0.484-0.076   C896.773,880.646,896.935,880.671,897.11,880.71z M895.509,881.125c-0.076,0.188-0.097,0.429-0.063,0.724   C895.412,881.554,895.433,881.313,895.509,881.125z"/>
	<path fill="#F99E2B" stroke="#F99E2B" stroke-width="0.5" d="M701.14,916.63c0.18-13.52-1.86-27.07-0.35-40.55   c-0.38-0.48-1.14-1.45-1.52-1.93c-10.53,12.56-22.94,23.34-35.24,34.1c-10.64,9.26-21.54,18.21-32.56,27.01   c-5.72,4.74-11.55,9.38-17.73,13.53c-15.99,11.1-34.04,19.53-53.29,22.98c-16.75,3.03-34.19,4.01-50.94,0.44   c-11.16-2.45-21.92-7.21-30.72-14.56c-3.54-2.63-6.43-5.97-9.37-9.21c-12.64-13.02-22.64-28.33-31.69-43.98   c-4.2-7.12-7.81-14.57-12.3-21.49c-1.45,4.12-3.01,8.3-3.42,12.69c0.44,5.21,1.91,10.29,3.33,15.31   c3.15,16.77,7.85,33.25,13.39,49.38c4.32,11.52,8.94,23.38,17.43,32.53c8.27,8.53,18.68,14.65,29.41,19.58   c18.06,8.13,37.36,13.18,56.78,16.84c26.58,4.83,53.71,7.2,80.73,5.69c6.7-0.74,13.76-0.74,19.97-3.7   c5.08-2.43,7.07-8.39,6.9-13.68c-0.29-11.81-4.6-23.12-4.71-34.95c-0.06-5.63,1.36-11.68,5.52-15.73   c4.66-4.6,11.34-6.25,17.66-6.98c9.95-1.33,19.96,0.03,29.87,0.94c0.78-0.12,2.33-0.35,3.1-0.47   C701.62,945.82,701.11,931.22,701.14,916.63z"/>
	<g>
		<path fill="#F99E2B" stroke="#F99E2B" stroke-width="0.5" d="M698.96,829.61c-0.47-16.65,0.16-33.33-1.09-49.95    c-0.06-22.35-0.37-44.7-0.71-67.04c-0.19-9.35,0.27-18.71-0.63-28.02c-0.2-9.68-0.35-19.36-0.4-29.03    c0.19-11.37-0.85-22.69-0.82-34.05c-10.76-0.91-21.59,0.47-32.33-0.61l-0.03,0.14c-1.74,16-7.03,31.65-15.92,45.1    c-11.58,17.81-28.88,31.86-48.76,39.37c-24.52,9.41-52.71,8.75-76.74-1.86c-24.72-10.74-44.73-31.81-54.11-57.09    c-12.41-32.34-6.62-70.9,15-98c18.44-23.86,48.01-38.65,78.2-38.82c-2.77-0.16-5.52-0.46-8.27-0.77    c6.35-1.09,12.87-1.07,19.22,0.04c-2.74,0.3-5.49,0.58-8.23,0.72c23.51,0.14,46.82,8.9,64.63,24.23    c16.95,14.46,29,34.65,33.33,56.53c11.03,0.17,22.07,0.37,33.11-0.02c0.36-30.62-1.14-61.24-1.18-91.87    c0.06-20.33-1.17-40.62-1.1-60.96c-0.93-13-0.31-26.06-1.19-39.07c-0.44-16.96,0.17-33.97-1.08-50.9    c-0.03-27.69-0.71-55.37-0.76-83.05c0.17-6.34-0.93-12.64-0.75-18.98c0.09-6.71-0.41-13.41-0.16-20.11    c-0.25-1.4,1.29-1.93,2.07-2.76c-0.44,0.03-1.31,0.1-1.75,0.13c-22.61,1.1-45.54-1.19-67.17-8.04    c-21.13-6.54-41.4-17.77-55.52-35.12c-4.4,3.27-9.09,6.5-11.96,11.3c-3.64,5.91-7.12,12-11.97,17.02    c-6.83,7.44-15.75,12.68-25.24,15.98c-5.46,12.08-5.65,26.43-0.18,38.54c7.3,16.25,20.13,29.23,27.61,45.38    c5.96,12.17,7.52,26.57,3.3,39.54c-3.31,11.04-10.58,20.36-18.72,28.31c-7.27,7.44-15.86,14.11-20.37,23.74    c-3.8,8.11-3.31,18.1,1.43,25.72c5.01,8.26,13.22,13.93,21.65,18.28c10.32,4.52,21.74,7.51,33.06,5.91    c6.14-0.65,11.67-3.74,16.07-7.97c-5.12,7.38-14.57,9.92-23.09,10.29c-12.39,0.33-24.89-2.91-35.56-9.2    c-9.58-5.14-18.08-13.45-21.11-24.13c-2.12-8.51-1.32-17.87,2.92-25.62c7.64-14.42,22.07-23.78,29.59-38.28    c5.52-10.34,6.85-23.07,2.44-34.06c-5.38-13.89-16.08-24.64-24.57-36.6c-6.46-8.87-12.2-18.6-14.44-29.46    c-1.8-6.93-1.56-14.13-1.37-21.21c-10.95,7.8-17.21,21.12-17.39,34.44c-0.4,9.61,4.14,18.49,8.95,26.5    c3.78,5.84,7.13,12,9.37,18.6c3.89,11.17,4.65,23.13,4.51,34.86c0.2,17.11-3.03,34.63-11.58,49.62    c-7.92,14.26-20.32,25.63-34.25,33.91c-4.01,2.27-7.12,5.96-8.67,10.3c-3.07,8.32-2,17.4-0.47,25.93    c1.19,7.01,3.92,13.89,3.09,21.12c-0.9,17.38-7.67,34.87-20.81,46.65c-12.22,11.91-28.8,17.24-44.71,22.22    c-11.1,3.85-22.8,7.43-31.86,15.25c-5.74,4.83-8.99,12.43-8.16,19.93c0.93,8.6,4.79,16.6,9.35,23.84    c7.65,11.58,20.23,18.29,31.85,25.2c7.65,4.52,15.24,9.32,21.82,15.33c6.13,7.2,13.03,13.71,19.01,21.05    c17.59,20.97,32.2,45.88,34.97,73.58c3.08,28.04-7.33,55.87-23.21,78.59c-4.11,5.52-5.33,12.48-6.28,19.13    c3.97-2.47,8.02-5.37,12.94-5.2c-2.47,1.57-5.18,2.7-7.63,4.29c-5.76,4.21-8.61,12.16-6.35,19.03    c2.34,8.68,9.99,14.61,17.95,17.96c10.43,4.35,21.56,7.04,32.83,7.98c0.15-1,0.3-2,0.44-2.98c-7.18-1.8-14.44-5.24-18.68-11.56    c3.01,2.8,6.17,5.58,10.08,7.07c11.62,4.74,24.53,4.72,36.85,3.69c24.16-2.19,47.61-9.62,69.61-19.62    c15.44-9.36,29.16-21.23,42.63-33.18c7.07-6.34,14.49-12.37,20.51-19.77c-1.97-1.63-3.78-3.43-5.48-5.32    c20.45,11.64,40.64,23.73,60.92,35.66c1.33-0.8,2.14-2.09,2.04-3.66C699.8,838.97,699.13,834.29,698.96,829.61z"/>
		<path fill="#F99E2B" stroke="#F99E2B" stroke-width="0.5" d="M516.49,893.17c-1.24-0.23-2.48-0.47-3.69-0.67    c-10.62,0.25-21.43,0.73-31.78-2.14c-0.14,0.98-0.29,1.98-0.44,2.98C492.51,894.73,504.6,895.25,516.49,893.17z"/>
	</g>
	<path fill="#D68B30" stroke="#D68B30" stroke-width="0.5" d="M975.93,929.09c-4.91-8.78-7.57-18.51-11.48-27.7   c-0.08-1.36-0.19-2.72-0.32-4.05c-2.41,1.68-3.39,4.57-4.89,6.98c-8.57,15.24-18.69,29.62-30.44,42.57   c1.97,4.39,5.67,7.92,9.14,11.23c3.62,3.02,7.18,6.35,11.53,8.3c5.18-2.69,10-6.05,15.08-8.93c3.14-1.81,6.26-3.64,9.35-5.53   c0.91-4.79,1.48-9.63,2.23-14.43C976.5,934.72,977.79,931.65,975.93,929.09z"/>
	<path fill="#522A22" stroke="#522A22" stroke-width="0.5" d="M1381.01,988.02c1.4,5.87,3.13,12.07,7.46,16.51   c3.6,3.66,9.46,4.73,14.09,2.36c5.17-2.19,8.36-6.94,11.48-11.35c-2.3,4.58-5.42,9-10.01,11.52c-4.7,2.96-11.2,2.81-15.56-0.7   c-5.04-4.01-7.38-10.35-9.02-16.37C1379.84,989.5,1380.62,988.52,1381.01,988.02z"/>
	<path fill="#6D3322" stroke="#6D3322" stroke-width="0.5" d="M939.15,1012.58c0.46-4.46,0.22-9.08,2.04-13.27   c1.23,15.11-1.44,30.21-0.48,45.33c0.57,8.34,0.55,16.74,1.85,25.04c1.97,20.8,9.23,41.28,21.69,58.12   c5.28,7.64,11.46,14.59,17.05,22c11.41,14.46,23.18,29.34,28.82,47.16c6.03,18.03,4.02,37.8-1.7,55.65   c-6.36,17.71-16.09,33.98-26.39,49.65c-1.68,2.84-4.81,5.45-4.15,9.08c-7.69,10.67-14.51,22.21-17.83,35.05   c-3.14,3.29-3.59,8.02-4.71,12.22c-2.38,9.2-2.15,18.78-3.3,28.16c-1.06-4.65-0.78-9.43-0.69-14.14   c0.21-18.63,7.22-36.37,15.47-52.81c5.48-9.44,10.56-19.12,16.55-28.25c3.68-6.38,7.71-12.57,10.76-19.3   c10.81-20.19,17.11-43.8,12.51-66.65c-2.08-9.47-5.26-18.8-10.02-27.28c-9.13-17.12-22.26-31.53-34.4-46.5   c-5.86-7.42-11.73-15.02-15.26-23.86c-3-7.64-6.04-15.34-7.28-23.49C934.74,1060.8,936.65,1036.43,939.15,1012.58z"/>
	<path fill="#6E3321" stroke="#6E3321" stroke-width="0.5" d="M904.83,1012.33c2.97,19.18-3.18,38.21-7.95,56.63   c-5.84,20.79-12.86,41.8-12.35,63.67c0.19,21.67,4.36,43.07,9.9,63.96c2.82,12.44,7.51,24.33,11.56,36.4   c4.12,9.82,7.28,20.01,11.09,29.95c5.76,19.14,10.55,39.66,6.09,59.58c-4.52,19.53-19.1,34.32-32.96,47.86   c-6.46,5.83-11.62,13.2-14.37,21.49c-3.71,10.17-2.8,21.28-1.37,31.8c3.48,19.23,9.98,38.22,8.94,58   c-0.98,11.88-4.6,24.08-12.89,32.97c-10.23,10.93-24.31,17.23-38.36,21.66c-8.92,3.76-18.46,5.84-27.31,9.78   c-5.06,2.18-10.21,4.2-15.02,6.91c-2.01,1.09-3.95,2.56-6.34,2.54c16.8-12.39,37.52-17.29,56.44-25.43   c8.58-3.53,16.83-7.98,23.79-14.17c5.28-5.41,10.05-11.63,12.15-19c3.36-8.02,2.7-16.83,2.7-25.31   c-1.57-22.61-12.12-44.09-10.22-67.04c-0.07-10.51,5.04-20.01,10.6-28.58c8.35-9.94,19.12-17.63,27.02-27.99   c6.72-7.37,11.45-16.58,13.57-26.34c2.08-7.91,1.51-16.07,0.86-24.11c-2.89-27.05-16.57-51.07-25.66-76.26   c-3.58-8.09-6.06-16.6-8.78-24.99c-3.81-14.05-7.61-28.15-9.29-42.64c-1.76-10.27-1.29-20.7-1.16-31.06   c1-21.28,8.54-41.43,15.55-61.3c2.69-6.82,4.61-13.9,7.17-20.76c1.6-8.05,4.59-15.81,5.26-24.03   C903.56,1015.02,904.03,1013.59,904.83,1012.33z"/>
	<path fill="#4F2D26" stroke="#4F2D26" stroke-width="0.5" d="M1414.64,1025.41c8.24,6.32,14.02,15.29,18.6,24.48   c5.07,10.49,8.51,22.28,7.07,34.02c-0.91-0.9-1.8-1.78-2.67-2.65c0.67-5.58,0.1-11.23-1.1-16.68   C1433.05,1049.86,1425.62,1035.91,1414.64,1025.41z"/>
	<path fill="#7A3622" stroke="#7A3622" stroke-width="0.5" d="M471.1,1044.71c-0.27-5.77-1.98-11.47-1.24-17.26   c6.52,20.3,7.29,42.19,16.03,61.83c3.74,9.5,9.85,17.81,16.09,25.81c6.73,7.93,14.52,14.88,21.76,22.34   c5.7,5.97,12.23,11.08,17.87,17.11c5.3,5.68,10.89,11.12,15.61,17.31c12.52,14.61,21.64,31.95,27.82,50.13   c3.26,10.18,5,20.87,4.52,31.59c0.93,31.29-9.69,62.26-27.43,87.82c-20.94,30.33-51.71,53.06-68.78,86.19   c-7.82,14.14-12.68,29.91-13.79,46.05c-0.81,20.02,5.88,40.01,17.91,55.96c2.12,3.14,5.17,5.85,5.9,9.74   c-3.94-2.51-7.91-4.96-11.91-7.35c-0.97-0.62-1.9-1.25-2.85-1.83c-1.8-5.11-5.95-8.96-7.71-14.11c-7.91-15.68-9.85-33.72-7.97-51   c2.64-17.58,9.38-34.3,18.46-49.49c8.88-14.14,19.14-27.35,30.38-39.69c14.06-16.1,29.06-31.88,38.72-51.17   c14.88-26.53,20.79-57.94,16.91-88.09c-1.02-12.2-3.45-24.41-8.29-35.7c-10.49-23.28-29.9-40.62-48.39-57.52   c-5.18-5.52-11.46-9.86-16.45-15.57c-6.35-7.38-13.14-14.51-17.9-23.08C475.28,1086.79,472.82,1065.29,471.1,1044.71z"/>
	<path fill="#7A3622" stroke="#7A3622" stroke-width="0.5" d="M697.31,1091.5c1.97-2.65,4.54-4.74,7.33-6.47   c0.03,3.04,0.07,6.1-0.09,9.16c-6.44,6.77-11.49,14.87-14.92,23.56c-6.47,19.2-4.49,40.2,1.62,59.23   c3.74,11.2,9.07,21.82,15.11,31.96l0.22,0.56c0.11,2.87-0.17,5.75-0.66,8.59c-6.75-9.51-13.34-19.2-18.13-29.87   c-6.92-16.5-11.31-34.59-9.44-52.55C679.07,1119.29,686.49,1103.63,697.31,1091.5z"/>
	<path fill="#6A2819" stroke="#6A2819" stroke-width="0.5" d="M689.63,1117.75c3.43-8.69,8.48-16.79,14.92-23.56   c-0.23,18.15-0.19,36.31,0.07,54.46c1.99,12.61-0.26,25.44,1.57,38.07c0.57,7.39,0.14,14.81,0.17,22.22   c-6.04-10.14-11.37-20.76-15.11-31.96C685.14,1157.95,683.16,1136.95,689.63,1117.75z"/>
	<path fill="#6D3322" stroke="#6D3322" stroke-width="0.5" d="M706.58,1209.5c9.51,13.93,19.86,27.3,31.15,39.85   c6.06,5.95,11.09,12.85,17.5,18.48c12.17,13,23.97,26.53,33.16,41.87c11.19,18.08,18.83,39.05,18.34,60.54   c0.82,19.24-6.58,38.78-20.48,52.19c-3.24,4.06-6.95,7.69-11.2,10.69c-12.52,10.89-26.9,19.25-40.58,28.54   c-7.52,5.69-16.02,10.22-22.63,17.04c-0.25-1.27-0.5-2.51-0.76-3.72c-0.37-0.12-1.1-0.35-1.47-0.46c0.88-0.78,1.76-1.54,2.66-2.28   c7.59-6.49,15.88-12.07,24-17.85c7.88-4.63,14.95-10.47,22.69-15.3c13.46-9.95,27.12-20.86,34.79-36.11   c5.5-10.17,7.49-21.88,7.03-33.34c0.19-15.39-3.04-30.83-9.52-44.78c-3.98-10.04-10.07-19.02-16.13-27.87   c-8.86-12.9-19.85-24.1-30.8-35.21c-6.58-7.76-14.36-14.42-20.76-22.35c-5.95-6.08-11.17-12.81-16.44-19.48   c-0.43-0.64-0.82-1.27-1.21-1.86C706.41,1215.25,706.69,1212.37,706.58,1209.5z"/>
	<path fill="#60261A" stroke="#60261A" stroke-width="0.5" d="M706.47,1235.64c0.05-5.24-0.56-10.54,0.66-15.69   c5.27,6.67,10.49,13.4,16.44,19.48c6.4,7.93,14.18,14.59,20.76,22.35c10.95,11.11,21.94,22.31,30.8,35.21   c6.06,8.85,12.15,17.83,16.13,27.87c6.48,13.95,9.71,29.39,9.52,44.78c0.46,11.46-1.53,23.17-7.03,33.34   c-7.67,15.25-21.33,26.16-34.79,36.11c-7.74,4.83-14.81,10.67-22.69,15.3c-8.12,5.78-16.41,11.36-24,17.85   c-3.63-3.16-1.54-8.55-1.83-12.69c-0.14-12.64,0.69-25.35-0.9-37.92c-0.17-10.68,0.06-21.35-0.1-32.02   c-0.2-10.98,0.67-22.01-0.86-32.92c-0.33-14,0.04-28.02-0.13-42.02c-2.33-18.24,0.37-36.74-1.96-54.98   C706.31,1251.67,706.54,1243.65,706.47,1235.64z"/>
	<path fill="#522A22" stroke="#522A22" stroke-width="0.5" d="M1016.33,1401.72c8.39,4.37,17.89,5.55,27.18,6.42   c-9.27,0.68-18.75,0.09-27.58-2.97C1016.03,1404.3,1016.23,1402.58,1016.33,1401.72z"/>
	<path fill="#793624" stroke="#793624" stroke-width="0.5" d="M709.61,1474.52c0.37,0.11,1.1,0.34,1.47,0.46   c0.26,1.21,0.51,2.45,0.76,3.72l-0.53,0.57c-7.65,6.91-15.05,14.65-18.72,24.47c-1.77,5.32-3.34,10.92-2.75,16.59   c0.66,9.36,4.06,18.28,8.25,26.6c5.65,12.43,11.91,24.68,15.29,37.99c0.1,0.36,0.28,1.07,0.38,1.43c-0.24,1.43-0.48,2.93-0.75,4.4   c-2.37-12.48-8.38-23.73-13.58-35.17c-5.25-10.89-12.06-21.56-12.86-33.95c-1.22-11.28,2.63-22.65,9.18-31.76   C699.91,1484.37,704.12,1478.78,709.61,1474.52z"/>
	<path fill="#6A281A" stroke="#6A281A" stroke-width="0.5" d="M692.59,1503.74c3.67-9.82,11.07-17.56,18.72-24.47   c0.31,9.45,0.04,18.91,0.17,28.37c2.11,19.54,0.15,39.26,1.25,58.86c0.88,6.1,0.84,12.26,0.65,18.42   c-3.38-13.31-9.64-25.56-15.29-37.99c-4.19-8.32-7.59-17.24-8.25-26.6C689.25,1514.66,690.82,1509.06,692.59,1503.74z"/>
	<path fill="#FFFFFF" stroke="#FFFFFF" stroke-width="0.5" d="M884.45,1521.72c4.65-5.05,9.29-10.11,14.03-15.07   C894.88,1512.51,890.15,1517.83,884.45,1521.72z"/>
	<path fill="#562924" stroke="#562924" stroke-width="0.5" d="M385.64,1511.46c6.81,6.64,13.28,14.13,16.39,23.28   c1.76,4.84,1.3,10.1,0.98,15.15c-0.41-4.63-0.14-9.42-1.89-13.8c-3.29-8.56-9.89-15.3-16.67-21.23c0.36-0.13,1.08-0.39,1.44-0.52   C385.81,1513.36,385.73,1512.4,385.64,1511.46z"/>
	<path fill="#D7CECC" stroke="#D7CECC" stroke-width="0.5" d="M491.46,1531.98c4,2.39,7.97,4.84,11.91,7.35   c13.1,9.06,26.17,18.35,37.58,29.53c2.68,2.93,5.27,5.95,7.89,8.97c-3.42-1.21-6.5-3.11-9.68-4.79l0.23,1.5   c-12.35-12.29-27.06-21.8-40.78-32.42C496.3,1538.67,492.84,1535.99,491.46,1531.98z"/>
	<path fill="#793623" stroke="#793623" stroke-width="0.5" d="M540.95,1568.86c2.43,0.29,4.82,1.02,6.81,2.51   c3.81,2.74,8.19,4.47,12.28,6.73c10.36,6.01,21.52,10.43,32.1,16.03c16.87,8.94,33.94,18.65,46.68,33.17   c10.13,11.28,16.73,25.62,18.41,40.7c-2.06-1.49-2.13-4.17-2.78-6.38c-2.76-11.64-8.44-22.61-16.75-31.25   c-13.82-15.11-32.16-25.09-50.58-33.46c-8.36-4.52-17.34-7.73-25.67-12.28c-3.11-1.69-6.28-3.43-9.85-3.87   c-0.92-1-1.86-1.96-2.76-2.93C546.22,1574.81,543.63,1571.79,540.95,1568.86z"/>
	<path fill="#522A22" stroke="#522A22" stroke-width="0.5" d="M724.66,1604.37c0.47,0.66,0.97,1.34,1.49,2.02   c0.42-0.48,1.26-1.46,1.68-1.95c-2.25,8.54-1.89,18.2,3.1,25.74c4.31,6.87,12.49,11.02,20.58,10.47   c6.87-0.13,13.01-3.55,18.78-6.93c-5.87,4.77-13.18,7.99-20.82,8.16c-8.07,0.09-16.05-4.07-20.51-10.82   C723.66,1623.34,722.7,1613.35,724.66,1604.37z"/>
	<path fill="#5F2E22" stroke="#5F2E22" stroke-width="0.5" d="M456.21,1662.79c-7.58-11.27-12.35-26.25-6.5-39.31   c0.73,1.25,1.47,2.52,2.21,3.82C446.65,1638.98,451.14,1651.9,456.21,1662.79z"/>
	<path fill="#5D2C20" stroke="#5D2C20" stroke-width="0.5" d="M597.23,1642.07c1.07,7.63-0.31,15.87-5.56,21.77   c-0.33-0.47-0.99-1.42-1.32-1.89c3.89-5.43,4.71-12.31,3.72-18.77c0.64,1.06,1.3,2.13,1.99,3.22   C596.46,1644.95,596.84,1643.46,597.23,1642.07z"/>
	<path fill="#622B21" stroke="#622B21" stroke-width="0.5" d="M666.66,1741.91c0.65-2.08,2.52-0.57,3.78-0.37   c7.26,3.06,15.48,1.94,22.71-0.6c-0.32,0.57-0.97,1.71-1.29,2.28c1.33,0.37,2.65,0.72,4.02,1.16   C686.46,1747.23,674.87,1748.26,666.66,1741.91z"/>
</g>
</svg>
